# Blender 4.4.3
# www.blender.org
mtllib Head_Low_poly.mtl
o head
v 0.037441 0.202418 0.035169
v 0.038824 0.113385 -0.063081
v 0.042030 0.205814 -0.073616
v 0.023385 0.115375 -0.078142
v 0.000000 0.107654 -0.076786
v 0.000000 0.215925 -0.083029
v 0.024122 0.213436 -0.081362
v 0.048213 0.184798 -0.076479
v 0.050779 0.165004 -0.075715
v 0.047583 0.132013 -0.069556
v 0.036395 0.089761 0.030853
v 0.042370 0.086290 -0.015762
v 0.045399 0.099557 -0.040341
v 0.050345 0.209122 -0.054557
v 0.046698 0.211130 -0.011807
v 0.043808 0.207902 0.011528
v 0.032822 0.152081 0.043855
v 0.044856 0.146038 0.032983
v 0.032461 0.144784 0.043477
v 0.000000 0.084126 0.056769
v 0.021399 0.209586 0.042345
v -0.000000 0.211150 0.044243
v 0.000026 0.128166 -0.093158
v 0.000007 0.167343 -0.103233
v 0.000000 0.189430 -0.099825
v 0.026816 0.131742 -0.091415
v 0.026406 0.167484 -0.098827
v 0.025465 0.187921 -0.095595
v 0.052796 0.116141 -0.022911
v 0.057015 0.158956 -0.036309
v 0.056801 0.184555 -0.055199
v 0.062972 0.158860 -0.037781
v 0.056609 0.117648 -0.026951
v 0.056519 0.184485 -0.010278
v 0.032760 0.076528 0.031014
v 0.053471 0.156634 0.012867
v 0.052038 0.182470 0.014869
v 0.013243 0.120547 0.057554
v 0.013829 0.147655 0.043601
v 0.005776 0.167892 0.061349
v 0.000008 0.138017 0.064744
v 0.000000 0.152332 0.055960
v -0.000000 0.159598 0.060118
v 0.000006 0.047388 0.015181
v 0.000000 0.064286 0.058067
v 0.025421 0.227558 -0.059493
v 0.000001 0.230327 -0.061194
v 0.026391 0.228595 -0.011976
v 0.000000 0.233925 -0.012283
v 0.024947 0.223528 0.013032
v 0.000000 0.228069 0.014328
v 0.000000 0.098397 -0.074564
v 0.023641 0.066712 -0.081151
v -0.000003 0.065548 -0.073681
v 0.015699 0.004375 0.000792
v 0.045248 0.027659 -0.020832
v 0.000001 -0.000006 -0.000163
v 0.042175 0.177471 0.038259
v 0.050294 0.148472 0.023160
v 0.015234 0.147017 0.043439
v -0.000006 0.125200 0.074415
v 0.017748 0.151595 0.044069
v 0.000000 0.168707 0.061563
v 0.027327 0.134268 0.048268
v 0.023907 0.148831 0.040702
v 0.024448 0.160552 0.057273
v -0.000000 0.115777 0.075186
v 0.021083 0.181414 0.055910
v 0.000000 0.181103 0.059489
v 0.039985 0.160527 0.047621
v 0.037643 0.147998 0.041364
v 0.039090 0.137197 0.040174
v 0.023885 0.143214 0.047738
v 0.025199 0.152589 0.048849
v 0.014168 0.136999 0.052434
v 0.024698 0.155752 0.050187
v 0.007602 0.115306 0.061852
v 0.005461 0.159949 0.058551
v 0.024758 0.138198 0.047248
v 0.041516 0.146728 0.036938
v 0.036144 0.153812 0.045844
v 0.035411 0.140435 0.042406
v 0.011351 0.148955 0.043380
v 0.013945 0.141976 0.047376
v 0.013805 0.153389 0.047593
v 0.009929 0.144241 0.048230
v 0.008144 0.150917 0.048070
v 0.009419 0.155014 0.048540
v 0.000006 0.147028 0.059077
v 0.002650 0.114412 0.065047
v 0.003069 0.115070 0.070968
v 0.032915 0.099186 0.043213
v 0.031743 0.089662 0.039875
v -0.000000 0.074528 0.058280
v 0.012578 0.112867 0.059040
v 0.000024 0.110497 0.064091
v 0.046463 0.086538 -0.007149
v 0.052564 0.109919 -0.008324
v 0.000000 0.057891 0.051900
v 0.047030 0.131525 0.033641
v 0.035030 0.121144 0.048227
v 0.032602 0.067735 0.023772
v 0.027830 0.082331 0.042047
v 0.011951 0.046798 0.008770
v 0.023036 0.068222 0.042933
v 0.010491 0.001899 0.001333
v 0.018815 0.059912 0.035567
v 0.051028 0.148433 -0.073560
v 0.000026 0.147750 -0.101706
v 0.027292 0.150023 -0.097834
v 0.053836 0.139909 -0.039099
v 0.059712 0.140920 -0.019911
v 0.054001 0.138887 0.009855
v 0.039170 0.102093 0.033065
v 0.024125 0.086570 0.047867
v 0.028514 0.098024 0.046884
v 0.028492 0.091143 0.044735
v 0.016169 0.081849 0.052040
v 0.018864 0.107521 0.055519
v 0.010094 0.116893 0.066447
v 0.001963 0.115130 0.068268
v 0.007865 0.137701 0.057480
v 0.009925 0.122702 0.063946
v 0.007298 0.156320 0.054010
v 0.005451 0.151596 0.052078
v 0.005414 0.145767 0.054167
v 0.007073 0.116743 0.063930
v 0.000000 0.112324 0.069695
v 0.013749 0.074072 0.054821
v 0.006059 0.111722 0.062292
v 0.003286 0.152534 0.055625
v 0.007001 0.047235 0.012953
v 0.015811 0.064897 0.053015
v 0.006450 0.001019 0.000521
v 0.004315 0.138519 0.063086
v 0.007517 0.122213 0.068937
v 0.007313 0.117435 0.071391
v 0.003400 0.146487 0.058722
v 0.005301 0.114774 0.062417
v 0.004327 0.116382 0.070332
v 0.015051 0.059368 0.046899
v 0.004729 0.117447 0.064309
v 0.014243 0.116258 0.058147
v 0.000000 0.121186 0.076609
v 0.010884 0.119513 0.065779
v 0.007731 0.120425 0.070399
v 0.001985 0.113208 0.068528
v 0.002351 0.112131 0.065411
v 0.005596 0.112759 0.062468
v 0.006338 0.116043 0.071119
v 0.002880 0.114353 0.072192
v 0.009130 0.115819 0.066075
v 0.010249 0.113075 0.061839
v 0.022863 0.104918 -0.076311
v 0.040544 0.052983 -0.028724
v 0.000000 0.034183 0.013094
v 0.023443 0.086935 -0.076956
v 0.000870 0.084087 -0.073626
v 0.010998 0.037689 0.007858
v 0.006688 0.034800 0.010859
v 0.015154 0.058463 0.037091
v 0.010954 0.054152 0.018034
v -0.000002 0.056705 0.042626
v 0.016611 0.032501 0.001441
v 0.000000 0.024037 0.004605
v 0.008146 0.025128 0.003660
v 0.069687 0.135776 -0.042502
v 0.070008 0.149502 -0.036552
v 0.065342 0.125741 -0.029189
v 0.061854 0.128052 -0.022661
v 0.057536 0.142827 -0.027892
v 0.060095 0.138563 -0.038564
v 0.062243 0.116951 -0.021545
v 0.066570 0.162615 -0.028864
v 0.062208 0.163554 -0.031641
v 0.067518 0.138816 -0.034847
v 0.044693 0.090745 -0.024302
v 0.048561 0.212981 -0.031249
v 0.059038 0.185019 -0.030965
v 0.064019 0.166006 -0.030661
v 0.026546 0.230889 -0.032977
v -0.000000 0.235409 -0.034904
v 0.035505 0.017777 -0.007496
v 0.067159 0.136474 -0.043451
v 0.038893 0.045464 -0.010946
v 0.068369 0.159110 -0.042805
v 0.059761 0.115488 -0.028645
v 0.053052 0.115313 -0.014738
v 0.059104 0.164023 -0.027990
v 0.056469 0.113495 -0.019249
v 0.071262 0.158576 -0.041436
v 0.066941 0.165596 -0.028566
v 0.068705 0.136710 -0.039844
v 0.059409 0.114184 -0.017299
v 0.053982 0.119717 -0.012957
v 0.060629 0.156611 -0.014325
v 0.063615 0.116055 -0.026656
v 0.057671 0.138434 -0.008172
v 0.069906 0.157277 -0.039592
v 0.064762 0.161769 -0.029273
v 0.067369 0.137009 -0.038464
v 0.061895 0.121597 -0.022718
v 0.058079 0.127281 -0.015510
v 0.059598 0.145109 -0.020668
v 0.064276 0.120360 -0.028072
v 0.055672 0.133432 -0.020873
v 0.066334 0.156169 -0.038460
v 0.068716 0.147646 -0.033412
v 0.069140 0.137285 -0.036085
v 0.064676 0.127321 -0.027394
v 0.059061 0.127173 -0.018318
v 0.058698 0.144914 -0.022316
v 0.064673 0.123116 -0.028996
v 0.054272 0.136199 -0.022756
v 0.059239 0.136827 -0.015933
v 0.062805 0.154326 -0.019389
v 0.060573 0.152378 -0.022615
v 0.054322 0.136656 -0.020066
v 0.054769 0.133748 -0.022857
v 0.064308 0.142427 -0.033598
v 0.058925 0.129898 -0.018729
v 0.059592 0.130750 -0.025149
v 0.059017 0.140573 -0.021428
v 0.056889 0.137666 -0.027377
v 0.058085 0.132206 -0.021093
v 0.055734 0.133359 -0.024824
v 0.058050 0.137767 -0.021729
v 0.056015 0.137665 -0.025545
v 0.051523 0.111190 -0.014793
v 0.056350 0.163623 -0.055254
v 0.053362 0.144974 -0.053325
v 0.050361 0.126543 -0.049051
v 0.033648 0.152182 0.045891
v 0.037121 0.148083 0.041056
v 0.032902 0.144775 0.044421
v 0.023939 0.143743 0.047318
v 0.025034 0.152139 0.047769
v 0.014059 0.146443 0.043910
v 0.014524 0.147659 0.043166
v 0.018275 0.151138 0.046770
v 0.032859 0.151877 0.045311
v 0.036816 0.147984 0.040577
v 0.032685 0.144847 0.044013
v 0.023508 0.143337 0.045597
v 0.024694 0.153651 0.045760
v 0.014373 0.146839 0.043514
v 0.015230 0.147931 0.043171
v 0.018587 0.150915 0.046287
v 0.000041 0.111280 0.066031
v 0.002745 0.111083 0.064030
v 0.000021 0.113762 0.072863
v 0.051659 0.122539 0.008273
v 0.023861 0.113708 0.052488
v 0.046867 0.118914 0.025521
v 0.053899 0.121324 -0.007268
v 0.053430 0.118214 -0.011672
v 0.024114 0.102770 0.051460
v 0.030165 0.107149 0.048450
v 0.039233 0.111441 0.039355
v 0.044737 0.105070 0.020480
v 0.049361 0.107455 0.007411
v 0.036191 0.072052 -0.007272
v 0.040440 0.079985 0.017682
v 0.041325 0.075238 0.006791
v 0.022742 0.033977 -0.001735
v 0.046976 0.085928 0.003660
v 0.030784 0.038583 -0.004845
v 0.024047 0.009756 -0.002143
v 0.040590 0.059504 -0.062398
v 0.039863 0.043504 -0.041261
v 0.036831 0.066905 -0.047079
v 0.034895 0.078208 -0.061735
v 0.032326 0.102250 -0.064852
v 0.040275 0.166903 0.045598
v 0.046974 0.146276 0.029657
v 0.043460 0.132785 0.038686
v 0.030831 0.129553 0.049575
v -0.000007 0.131665 0.069702
v 0.023331 0.169429 0.056955
v 0.017001 0.130437 0.054444
v 0.008552 0.130944 0.059651
v 0.005145 0.131713 0.066368
v -0.000002 0.088579 0.061677
v 0.013417 0.099615 0.060972
v -0.000001 0.099388 0.065200
v 0.018680 0.092170 0.051936
v 0.023115 0.094897 0.047120
v 0.022971 0.093355 0.046777
v 0.013352 0.090977 0.057750
v 0.016780 0.098301 0.057616
v 0.008796 0.100438 0.064304
v 0.008903 0.089788 0.060963
v 0.004824 0.100675 0.065587
v 0.020178 0.096506 0.052521
v 0.000000 0.095453 0.061527
v 0.013192 0.095869 0.057672
v 0.000000 0.095610 0.061635
v 0.018729 0.094915 0.051376
v 0.021522 0.094743 0.047900
v 0.021703 0.094368 0.047280
v 0.012941 0.095662 0.057587
v 0.016675 0.095465 0.054477
v 0.008466 0.096310 0.059698
v 0.008500 0.095946 0.059825
v 0.004441 0.096051 0.061202
v 0.018921 0.095032 0.051408
v 0.023428 0.060086 0.008705
v 0.022125 0.062864 0.038950
v 0.010185 0.083007 0.054224
v 0.042219 0.120119 -0.065570
v 0.020577 0.074554 0.048519
v -0.000005 0.054059 0.022232
v 0.024535 0.120474 -0.082884
v 0.000011 0.115692 -0.082290
v 0.050281 0.098064 -0.007886
v 0.047138 0.098682 -0.015399
v 0.047479 0.111180 -0.043700
v 0.048072 0.096271 0.005545
v 0.047024 0.103809 -0.023732
v 0.042632 0.092804 0.018207
v 0.024204 0.078458 0.045290
v 0.016116 0.091677 0.054905
v 0.016670 0.095172 0.054123
v 0.027924 0.072367 0.036989
v 0.014028 0.057053 0.026842
v -0.000005 0.055699 0.032064
v 0.027409 0.065259 0.031373
v 0.020983 0.083523 0.050148
v 0.021181 0.059907 0.022143
v 0.007408 0.058046 0.050774
v 0.006158 0.074417 0.057780
v 0.007557 0.063944 0.057284
v -0.000003 0.012342 0.000170
v 0.004509 0.083847 0.056081
v 0.004158 0.024382 0.004442
v 0.003377 0.047235 0.014582
v 0.003515 0.034264 0.012478
v 0.004482 0.089083 0.061640
v 0.004371 0.095794 0.061030
v 0.005548 0.053960 0.021141
v 0.007760 0.056904 0.040315
v 0.007141 0.055932 0.030422
v 0.003144 0.013903 0.000367
v 0.013840 0.116808 0.055712
v 0.012978 0.121427 0.056384
v 0.008899 0.125035 0.061262
v 0.012620 0.111785 0.057638
v 0.008678 0.112963 0.061616
v 0.007708 0.115210 0.065403
v 0.004499 0.125127 0.071787
v 0.004533 0.115309 0.071217
v 0.004424 0.116079 0.073934
v 0.005042 0.120555 0.075254
v -0.037393 0.202386 0.035135
v -0.038847 0.113368 -0.063099
v -0.042087 0.205856 -0.073668
v -0.023393 0.115359 -0.078164
v -0.024176 0.213516 -0.081437
v -0.048279 0.184811 -0.076522
v -0.050836 0.165006 -0.075743
v -0.047583 0.132013 -0.069558
v -0.036367 0.089768 0.030839
v -0.042372 0.086290 -0.015761
v -0.045401 0.099556 -0.040341
v -0.050374 0.209139 -0.054562
v -0.046685 0.211119 -0.011810
v -0.043785 0.207883 0.011522
v -0.032870 0.152168 0.043871
v -0.044794 0.146060 0.032943
v -0.032552 0.144604 0.043701
v -0.021363 0.209562 0.042319
v -0.026854 0.131692 -0.091484
v -0.026485 0.167487 -0.098917
v -0.025510 0.187960 -0.095723
v -0.052822 0.116110 -0.022926
v -0.057063 0.158962 -0.036344
v -0.056827 0.184557 -0.055205
v -0.062927 0.158884 -0.037813
v -0.056591 0.117633 -0.026968
v -0.056490 0.184481 -0.010284
v -0.032740 0.076534 0.031002
v -0.053432 0.156636 0.012863
v -0.052003 0.182466 0.014861
v -0.013210 0.120528 0.057553
v -0.013824 0.147684 0.043539
v -0.005769 0.167890 0.061285
v -0.025433 0.227591 -0.059505
v -0.026377 0.228571 -0.011980
v -0.024930 0.223497 0.013022
v -0.023644 0.066720 -0.081183
v -0.015698 0.004372 0.000781
v -0.045240 0.027657 -0.020834
v -0.042153 0.177466 0.038240
v -0.050236 0.148484 0.023143
v -0.015066 0.146780 0.043207
v -0.017711 0.151627 0.044056
v -0.027326 0.134274 0.048223
v -0.023894 0.148824 0.040631
v -0.024450 0.160550 0.057268
v -0.021047 0.181400 0.055831
v -0.039985 0.160528 0.047620
v -0.037642 0.148034 0.041314
v -0.039067 0.137192 0.040142
v -0.023885 0.143207 0.047709
v -0.025191 0.152621 0.048781
v -0.014162 0.136996 0.052420
v -0.024698 0.155745 0.050190
v -0.007599 0.115316 0.061814
v -0.005436 0.159983 0.058520
v -0.024720 0.138177 0.047194
v -0.041481 0.146751 0.036887
v -0.036144 0.153814 0.045842
v -0.035399 0.140440 0.042391
v -0.011352 0.148955 0.043380
v -0.013940 0.141956 0.047334
v -0.013807 0.153394 0.047585
v -0.009942 0.144189 0.048219
v -0.008140 0.150918 0.048067
v -0.009420 0.155013 0.048540
v -0.002646 0.114412 0.065046
v -0.003063 0.115080 0.070979
v -0.032867 0.099201 0.043184
v -0.031699 0.089677 0.039853
v -0.012546 0.112897 0.059039
v -0.046466 0.086536 -0.007150
v -0.052559 0.109920 -0.008324
v -0.047021 0.131523 0.033633
v -0.034989 0.121155 0.048169
v -0.032599 0.067739 0.023771
v -0.027789 0.082344 0.042019
v -0.011921 0.046807 0.008738
v -0.023014 0.068229 0.042921
v -0.010493 0.001896 0.001321
v -0.018815 0.059913 0.035567
v -0.051038 0.148430 -0.073565
v -0.027336 0.150009 -0.097928
v -0.053853 0.139906 -0.039109
v -0.059711 0.140920 -0.019910
v -0.053990 0.138888 0.009851
v -0.039153 0.102098 0.033058
v -0.024090 0.086568 0.047829
v -0.028479 0.098052 0.046801
v -0.028445 0.091163 0.044676
v -0.016154 0.081864 0.051999
v -0.018820 0.107501 0.055454
v -0.010082 0.116900 0.066439
v -0.001919 0.115120 0.068268
v -0.007874 0.137688 0.057461
v -0.009909 0.122701 0.063935
v -0.007298 0.156323 0.054008
v -0.005440 0.151598 0.052070
v -0.005396 0.145762 0.054164
v -0.007133 0.116755 0.063963
v -0.013738 0.074067 0.054806
v -0.006053 0.111720 0.062279
v -0.003288 0.152534 0.055630
v -0.007008 0.047231 0.012963
v -0.015809 0.064898 0.053013
v -0.006447 0.001030 0.000500
v -0.004514 0.138604 0.063200
v -0.007500 0.122200 0.068925
v -0.007287 0.117470 0.071377
v -0.003438 0.146531 0.058790
v -0.005238 0.114814 0.062230
v -0.004328 0.116383 0.070334
v -0.015050 0.059371 0.046898
v -0.004693 0.117500 0.064256
v -0.014200 0.116264 0.058143
v -0.010863 0.119504 0.065768
v -0.007690 0.120408 0.070371
v -0.002029 0.113184 0.068535
v -0.002374 0.112112 0.065426
v -0.005584 0.112761 0.062440
v -0.006331 0.116051 0.071116
v -0.002881 0.114352 0.072192
v -0.009125 0.115832 0.066069
v -0.010247 0.113094 0.061825
v -0.022877 0.104917 -0.076338
v -0.040544 0.052983 -0.028724
v -0.023461 0.086940 -0.076982
v -0.010965 0.037699 0.007825
v -0.006681 0.034805 0.010850
v -0.015153 0.058460 0.037090
v -0.010955 0.054141 0.018038
v -0.016600 0.032505 0.001421
v -0.008133 0.025147 0.003619
v -0.069734 0.135742 -0.042555
v -0.070015 0.149503 -0.036552
v -0.065334 0.125743 -0.029192
v -0.061836 0.128042 -0.022674
v -0.057497 0.142828 -0.027906
v -0.060055 0.138549 -0.038648
v -0.062230 0.116945 -0.021553
v -0.066561 0.162631 -0.028869
v -0.062185 0.163569 -0.031650
v -0.067494 0.138818 -0.034909
v -0.044694 0.090744 -0.024303
v -0.048554 0.212975 -0.031250
v -0.059026 0.185017 -0.030965
v -0.064009 0.166021 -0.030664
v -0.026543 0.230884 -0.032971
v -0.035497 0.017773 -0.007505
v -0.067147 0.136431 -0.043560
v -0.038893 0.045464 -0.010945
v -0.068370 0.159147 -0.042862
v -0.059749 0.115464 -0.028661
v -0.053041 0.115319 -0.014739
v -0.059112 0.164030 -0.027992
v -0.056478 0.113510 -0.019248
v -0.071286 0.158584 -0.041439
v -0.066919 0.165581 -0.028572
v -0.068692 0.136705 -0.039861
v -0.059378 0.114210 -0.017323
v -0.053938 0.119731 -0.012976
v -0.060585 0.156608 -0.014335
v -0.063603 0.116059 -0.026657
v -0.057665 0.138435 -0.008173
v -0.069870 0.157286 -0.039632
v -0.064763 0.161769 -0.029273
v -0.067360 0.137013 -0.038458
v -0.061887 0.121597 -0.022723
v -0.058056 0.127282 -0.015521
v -0.059599 0.145109 -0.020669
v -0.064247 0.120373 -0.028080
v -0.055673 0.133440 -0.020896
v -0.066329 0.156170 -0.038462
v -0.068701 0.147648 -0.033425
v -0.069121 0.137287 -0.036102
v -0.064659 0.127319 -0.027404
v -0.059045 0.127167 -0.018322
v -0.058697 0.144914 -0.022315
v -0.064640 0.123116 -0.029005
v -0.054533 0.136217 -0.022699
v -0.059242 0.136827 -0.015932
v -0.062807 0.154326 -0.019389
v -0.060569 0.152380 -0.022616
v -0.054841 0.136371 -0.020766
v -0.054782 0.133748 -0.022854
v -0.064313 0.142445 -0.033634
v -0.058927 0.129897 -0.018729
v -0.059575 0.130724 -0.025165
v -0.059016 0.140573 -0.021428
v -0.056873 0.137670 -0.027384
v -0.058085 0.132203 -0.021101
v -0.055697 0.133344 -0.024845
v -0.058050 0.137768 -0.021730
v -0.056112 0.137823 -0.025382
v -0.051525 0.111189 -0.014794
v -0.056373 0.163620 -0.055255
v -0.053362 0.144974 -0.053325
v -0.050361 0.126543 -0.049051
v -0.033586 0.152204 0.045794
v -0.037146 0.148108 0.041040
v -0.032903 0.144759 0.044414
v -0.023937 0.143735 0.047319
v -0.025033 0.152164 0.047768
v -0.014069 0.146408 0.043843
v -0.014468 0.147704 0.043108
v -0.018277 0.151171 0.046739
v -0.032873 0.151941 0.045298
v -0.036888 0.148045 0.040510
v -0.032734 0.144775 0.044045
v -0.023507 0.143324 0.045605
v -0.024695 0.153661 0.045763
v -0.014353 0.146765 0.043463
v -0.015213 0.147946 0.042761
v -0.018585 0.150915 0.046288
v -0.002746 0.111081 0.064032
v -0.051655 0.122540 0.008272
v -0.023837 0.113716 0.052418
v -0.046856 0.118918 0.025520
v -0.053891 0.121325 -0.007268
v -0.053423 0.118214 -0.011673
v -0.024060 0.102787 0.051397
v -0.030117 0.107161 0.048384
v -0.039216 0.111483 0.039334
v -0.044731 0.105071 0.020478
v -0.049357 0.107455 0.007411
v -0.036200 0.072049 -0.007263
v -0.040431 0.079987 0.017678
v -0.041323 0.075240 0.006792
v -0.022738 0.033978 -0.001746
v -0.046971 0.085927 0.003655
v -0.030782 0.038583 -0.004847
v -0.024041 0.009756 -0.002156
v -0.040592 0.059505 -0.062397
v -0.039860 0.043503 -0.041262
v -0.036836 0.066903 -0.047087
v -0.034908 0.078211 -0.061739
v -0.032349 0.102244 -0.064871
v -0.040269 0.166895 0.045594
v -0.046904 0.146295 0.029617
v -0.043469 0.132804 0.038652
v -0.030869 0.129380 0.049579
v -0.023312 0.169428 0.056918
v -0.016978 0.130378 0.054444
v -0.008529 0.130930 0.059647
v -0.005251 0.131719 0.066398
v -0.013375 0.099646 0.060908
v -0.018642 0.092172 0.051905
v -0.023099 0.094962 0.047060
v -0.022945 0.093319 0.046685
v -0.013324 0.090995 0.057726
v -0.016740 0.098331 0.057570
v -0.008755 0.100487 0.064227
v -0.008910 0.089780 0.060977
v -0.004819 0.100694 0.065512
v -0.020143 0.096537 0.052493
v -0.013181 0.095889 0.057652
v -0.018710 0.094959 0.051357
v -0.021494 0.094788 0.047874
v -0.021650 0.094403 0.047227
v -0.012932 0.095692 0.057564
v -0.016658 0.095488 0.054460
v -0.008462 0.096336 0.059672
v -0.008491 0.095915 0.059806
v -0.004438 0.096055 0.061199
v -0.018905 0.095067 0.051393
v -0.023424 0.060091 0.008704
v -0.022121 0.062868 0.038948
v -0.010170 0.083023 0.054175
v -0.042223 0.120118 -0.065572
v -0.020547 0.074553 0.048491
v -0.024548 0.120446 -0.082899
v -0.050282 0.098068 -0.007893
v -0.047140 0.098681 -0.015400
v -0.047495 0.111176 -0.043703
v -0.048066 0.096272 0.005543
v -0.047025 0.103808 -0.023736
v -0.042622 0.092807 0.018202
v -0.024174 0.078468 0.045266
v -0.016073 0.091692 0.054871
v -0.016621 0.095151 0.054086
v -0.027904 0.072374 0.036977
v -0.014028 0.057052 0.026842
v -0.027404 0.065264 0.031372
v -0.020973 0.083527 0.050119
v -0.021181 0.059908 0.022143
v -0.007403 0.058020 0.050790
v -0.006164 0.074411 0.057775
v -0.007566 0.063945 0.057284
v -0.004517 0.083827 0.056132
v -0.004157 0.024396 0.004424
v -0.003392 0.047228 0.014642
v -0.003541 0.034262 0.012467
v -0.004488 0.089056 0.061679
v -0.004372 0.095770 0.061030
v -0.005559 0.053920 0.021150
v -0.007758 0.056875 0.040317
v -0.007145 0.055906 0.030425
v -0.003125 0.013908 0.000349
v -0.013782 0.116820 0.055718
v -0.012971 0.121437 0.056354
v -0.008888 0.125035 0.061256
v -0.012591 0.111763 0.057599
v -0.008678 0.112981 0.061599
v -0.007683 0.115219 0.065383
v -0.004555 0.125145 0.071819
v -0.004516 0.115311 0.071187
v -0.004467 0.116118 0.073929
v -0.004967 0.120530 0.075171
vn 0.0016 -0.2269 -0.9739
vn 0.0019 0.0532 -0.9986
vn 0.4605 0.0451 -0.8865
vn 0.4563 -0.2020 -0.8666
vn 0.0022 0.3692 -0.9293
vn 0.4021 0.3113 -0.8610
vn 0.3527 0.6323 -0.6897
vn 0.6907 0.4703 -0.5492
vn 0.7784 0.2110 -0.5913
vn 0.8266 0.0130 -0.5627
vn 0.8365 -0.1675 -0.5218
vn 0.3575 -0.6065 -0.7102
vn 0.4150 -0.4501 -0.7907
vn 0.7952 -0.3526 -0.4932
vn 0.7356 -0.4705 -0.4874
vn 0.0019 0.6806 -0.7326
vn -0.0986 -0.9950 -0.0157
vn -0.4774 -0.4710 -0.7418
vn -0.2686 -0.6104 -0.7452
vn 0.9893 0.1430 -0.0279
vn 0.9785 0.2059 0.0085
vn 0.9632 0.2195 0.1554
vn 0.9746 0.0686 0.2130
vn 0.4159 0.8959 0.1561
vn -0.0004 0.9879 0.1549
vn -0.0006 0.9358 0.3525
vn 0.3802 0.8656 0.3258
vn 0.9264 -0.3059 -0.2194
vn 0.9205 -0.2220 0.3217
vn 0.9826 -0.1125 0.1476
vn 0.9534 -0.2806 -0.1106
vn 0.9764 -0.1580 -0.1473
vn 0.9803 -0.0543 -0.1898
vn 0.9689 -0.0318 -0.2456
vn 0.8717 -0.2270 -0.4344
vn 0.9683 0.1546 -0.1964
vn 0.7904 0.5659 -0.2346
vn 0.8138 0.5810 0.0126
vn 0.8125 0.5617 0.1559
vn 0.9406 0.1885 0.2822
vn 0.9608 0.0285 0.2756
vn 0.7934 0.5374 0.2857
vn 0.7226 0.4469 0.5273
vn 0.8190 0.2043 0.5362
vn 0.9292 0.0368 0.3677
vn 0.9679 -0.0984 0.2313
vn 0.9176 -0.0825 0.3888
vn 0.6500 -0.1453 0.7459
vn 0.7052 -0.0635 0.7062
vn 0.8054 -0.2469 0.5389
vn 0.8187 -0.2610 0.5114
vn 0.3317 -0.9279 0.1703
vn 0.8573 -0.2234 0.4638
vn 0.9802 -0.1979 0.0063
vn 0.9395 -0.2899 -0.1823
vn 0.4430 -0.7803 0.4415
vn 0.8069 -0.3176 0.4980
vn 0.7993 -0.2730 0.5353
vn 0.5138 -0.7911 0.3320
vn 0.6961 -0.6592 0.2844
vn 0.7988 -0.3045 0.5188
vn 0.6422 -0.3350 0.6895
vn 0.5140 -0.7835 0.3491
vn -0.0033 0.7627 0.6468
vn -0.0289 -0.0422 0.9987
vn 0.0886 -0.0289 0.9956
vn 0.0834 0.7448 0.6621
vn -0.1098 -0.8393 0.5324
vn 0.0652 -0.8372 0.5430
vn 0.3680 0.6420 0.6726
vn 0.3751 0.3356 0.8641
vn 0.0009 -0.6343 -0.7731
vn 0.0013 -0.4876 -0.8731
vn 0.7108 -0.0876 0.6979
vn 0.5505 0.0375 0.8340
vn 0.2310 -0.2491 0.9405
vn 0.0139 -0.0952 0.9954
vn 0.2461 -0.0566 0.9676
vn 0.5579 -0.2160 0.8013
vn 0.3660 -0.0882 -0.9264
vn 0.8114 -0.0884 -0.5777
vn 0.9074 0.0950 -0.4094
vn 0.3452 0.1008 -0.9331
vn 0.9695 -0.0324 -0.2427
vn 0.9951 -0.0597 -0.0791
vn 0.9835 0.1158 0.1387
vn 0.9860 0.1667 -0.0089
vn 0.8578 -0.2945 0.4213
vn 0.8751 -0.2390 0.4208
vn 0.4189 -0.1750 0.8910
vn 0.5411 -0.1876 0.8198
vn -0.0010 0.7097 0.7045
vn -0.0016 0.3945 0.9189
vn 0.4118 0.9108 -0.0310
vn -0.0000 0.9989 -0.0479
vn 0.3813 0.8704 -0.3115
vn 0.9659 -0.1166 0.2313
vn 0.0008 0.9348 -0.3552
vn 0.9238 -0.0204 0.3824
vn 0.6233 -0.0121 0.7819
vn 0.4346 0.0035 0.9006
vn 0.7837 0.0681 0.6174
vn 0.7803 0.1411 0.6093
vn 0.8914 0.0666 0.4482
vn 0.6965 0.2073 0.6869
vn 0.7158 0.3767 0.5880
vn 0.0054 0.5719 0.8203
vn 0.0011 0.5835 0.8121
vn 0.7103 0.4344 0.5538
vn 0.0006 0.0545 -0.9985
vn 0.3202 0.1800 -0.9301
vn 0.0007 0.1079 -0.9942
vn 0.4775 0.2001 0.8555
vn 0.6481 -0.0893 0.7563
vn 0.4546 0.1443 0.8789
vn 0.2517 -0.0901 0.9636
vn 0.1764 0.7300 0.6603
vn 0.3322 -0.8413 0.4265
vn 0.5819 0.1692 0.7955
vn -0.0037 0.1595 0.9872
vn -0.0037 -0.4478 0.8941
vn 0.4901 -0.4221 0.7627
vn -0.0036 -0.3368 0.9416
vn 0.2088 -0.4483 0.8692
vn 0.1693 0.0334 0.9850
vn -0.0031 0.1053 0.9944
vn 0.4382 0.1863 0.8794
vn 0.4476 0.0556 0.8925
vn 0.2873 -0.4266 0.8576
vn 0.5731 0.2660 0.7751
vn 0.7805 -0.0718 0.6211
vn 0.6392 -0.2452 0.7289
vn 0.5494 0.0401 0.8346
vn 0.3995 0.4323 0.8084
vn 0.2917 0.2916 0.9110
vn 0.6457 -0.2182 0.7317
vn 0.4307 -0.5335 0.7279
vn 0.4671 -0.8533 0.2317
vn 0.8599 -0.4975 0.1146
vn 0.8460 -0.1751 0.5037
vn 0.5824 -0.2819 0.7625
vn 0.1501 -0.6555 0.7402
vn 0.7499 0.2253 0.6220
vn 0.8044 0.2473 0.5401
vn 0.8965 0.1207 0.4262
vn 0.8024 -0.4303 0.4135
vn 0.9555 0.0353 0.2928
vn -0.0175 -0.3738 0.9274
vn -0.1209 -0.5785 0.8067
vn -0.0256 -0.6738 0.7385
vn 0.3943 -0.1271 0.9102
vn 0.0691 -0.5462 0.8348
vn 0.3321 -0.5268 0.7825
vn 0.5680 -0.2444 0.7859
vn 0.4983 -0.0266 0.8666
vn 0.1660 0.1657 0.9721
vn -0.0067 0.3751 0.9270
vn 0.3044 0.5022 0.8094
vn 0.6940 0.4486 0.5631
vn 0.4650 0.5060 0.7265
vn 0.7847 0.3801 0.4897
vn 0.8371 -0.0802 0.5411
vn 0.5662 -0.1379 0.8126
vn 0.6248 0.4240 0.6556
vn 0.7501 -0.0222 0.6610
vn 0.1677 -0.7955 0.5824
vn 0.3465 -0.7726 0.5320
vn 0.5246 -0.1780 0.8325
vn 0.7202 -0.4231 0.5498
vn 0.1942 0.1039 0.9754
vn 0.5132 0.1950 0.8358
vn 0.8383 0.1952 0.5091
vn 0.3443 -0.7775 0.5262
vn 0.7313 -0.6525 0.1987
vn 0.5001 -0.8196 0.2798
vn -0.0005 -0.8748 0.4845
vn 0.0039 -0.9489 0.3156
vn 0.2262 -0.1819 0.9569
vn 0.0037 -0.1971 0.9804
vn 0.0008 0.0575 0.9983
vn 0.2642 0.0672 0.9621
vn 0.3272 -0.9398 0.0990
vn 0.4999 -0.8598 0.1042
vn 0.5804 -0.3159 0.7506
vn 0.7856 -0.2561 0.5632
vn 0.0010 -0.1169 0.9931
vn 0.8157 -0.4688 0.3390
vn 0.8979 -0.4213 -0.1275
vn 0.7900 -0.6130 0.0125
vn 0.6417 -0.1511 0.7519
vn 0.7602 -0.2211 0.6109
vn 0.6120 -0.1224 0.7813
vn 0.3346 -0.0124 0.9423
vn 0.9476 -0.2604 -0.1852
vn 0.8817 -0.3694 -0.2937
vn 0.9753 -0.1696 0.1414
vn 0.9626 -0.1712 0.2098
vn -0.3502 -0.2217 -0.9101
vn 0.8186 -0.3393 -0.4635
vn 0.6827 -0.6671 -0.2981
vn 0.8746 -0.2528 0.4138
vn 0.9253 -0.1989 0.3229
vn 0.0115 0.5064 0.8622
vn 0.0109 0.5316 0.8469
vn 0.6494 0.4288 0.6281
vn -0.1177 -0.9382 -0.3255
vn -0.6212 -0.7835 -0.0174
vn -0.3899 -0.9160 0.0944
vn 0.0399 -0.9992 -0.0079
vn 0.8196 0.4748 0.3207
vn 0.7740 0.4976 0.3915
vn 0.6718 -0.6971 -0.2503
vn 0.1426 -0.9844 0.1029
vn 0.2077 -0.8979 0.3880
vn -0.0049 -0.7053 0.7088
vn 0.5491 0.1486 0.8224
vn -0.3223 -0.5139 0.7950
vn 0.2860 -0.3820 0.8788
vn 0.7231 0.4124 0.5542
vn 0.8895 0.3986 0.2234
vn 0.6957 -0.6084 0.3818
vn 0.9643 -0.1768 -0.1971
vn 0.2874 -0.4504 0.8453
vn 0.0043 -0.4555 0.8902
vn 0.0007 -0.4212 0.9070
vn 0.2777 -0.3896 0.8781
vn 0.8607 -0.2367 -0.4508
vn 0.0006 -0.4057 -0.9140
vn 0.3488 -0.4199 -0.8379
vn 0.0006 -0.0838 -0.9965
vn 0.5612 -0.4531 0.6926
vn 0.5537 -0.3776 0.7422
vn 0.4705 -0.8100 0.3501
vn 0.1827 -0.8968 0.4030
vn 0.5373 -0.3108 0.7840
vn 0.5327 -0.2837 0.7973
vn -0.0023 -0.5149 0.8572
vn 0.0473 -0.4230 0.9049
vn 0.6804 0.2000 0.7050
vn 0.8133 0.0256 0.5813
vn 0.6937 -0.0976 0.7136
vn 0.5945 0.3578 0.7201
vn 0.7869 0.1827 0.5895
vn 0.7359 0.3270 0.5929
vn -0.3153 0.3225 -0.8925
vn 0.9174 0.2480 -0.3113
vn -0.4231 0.2544 -0.8696
vn -0.4476 -0.1596 -0.8799
vn -0.4185 0.7236 -0.5489
vn -0.1448 0.9855 -0.0890
vn 0.6449 0.6776 0.3535
vn 0.9637 -0.1774 0.1996
vn 0.9770 -0.1219 -0.1747
vn 0.9750 0.1528 -0.1614
vn 0.6771 -0.4804 0.5574
vn 0.8659 -0.4170 0.2763
vn 0.7217 -0.2336 0.6516
vn 0.8075 -0.0068 0.5898
vn 0.8449 0.0065 0.5349
vn 0.8721 -0.0794 0.4829
vn 0.9757 -0.1924 0.1045
vn 0.9257 0.0038 0.3783
vn 0.9662 -0.1417 0.2155
vn 0.8827 -0.2151 0.4178
vn 0.9725 -0.0359 0.2300
vn 0.9922 -0.0982 0.0768
vn 0.9040 0.0469 0.4250
vn 0.9108 0.1331 0.3907
vn 0.8450 -0.3626 0.3931
vn 0.9716 -0.1137 0.2074
vn 0.9560 -0.1414 -0.2571
vn 0.9298 -0.3583 0.0843
vn 0.9106 -0.1974 -0.3632
vn 0.9628 -0.1400 -0.2312
vn 0.9842 0.1771 -0.0019
vn 0.8152 0.1412 0.5617
vn 0.8204 -0.1333 0.5561
vn 0.9136 -0.3870 0.1249
vn 0.3751 -0.4757 -0.7956
vn 0.3080 0.4743 -0.8247
vn 0.8659 0.4756 0.1548
vn 0.7303 0.5558 0.3973
vn 0.6417 0.4661 -0.6091
vn 0.5543 -0.5355 -0.6372
vn 0.8402 -0.3470 0.4168
vn 0.9836 -0.1721 0.0543
vn 0.9692 -0.2334 -0.0780
vn 0.9196 -0.3195 -0.2286
vn -0.2457 -0.9693 0.0027
vn -0.7736 -0.3430 0.5329
vn -0.2078 0.9668 0.1489
vn 0.0444 0.9777 0.2051
vn 0.0699 -0.9722 -0.2237
vn 0.2106 0.8967 0.3894
vn 0.6797 -0.7141 0.1674
vn 0.4057 -0.8930 -0.1949
vn 0.6683 -0.1986 0.7169
vn 0.8264 -0.2264 0.5155
vn 0.4939 -0.0613 0.8673
vn 0.0046 -0.9182 0.3961
vn -0.0045 0.0144 0.9999
vn 0.4346 0.0556 0.8989
vn 0.8179 -0.3201 0.4781
vn 0.5993 -0.1999 0.7752
vn 0.5447 0.0438 0.8375
vn 0.9218 -0.2218 0.3178
vn 0.9589 -0.1745 0.2236
vn 0.9080 -0.2023 0.3668
vn 0.7266 -0.6742 0.1322
vn 0.9555 -0.1844 0.2302
vn 0.9441 -0.2727 0.1853
vn 0.9008 -0.2947 0.3188
vn 0.9353 0.2179 -0.2787
vn 0.5235 0.0645 0.8496
vn 0.6643 0.1366 0.7349
vn -0.0048 -0.2163 0.9763
vn 0.1853 -0.1788 0.9663
vn 0.5304 -0.2271 0.8168
vn 0.3449 -0.3467 0.8723
vn 0.6198 -0.3544 0.7002
vn 0.4465 -0.4537 0.7712
vn 0.5626 0.0140 0.8266
vn 0.6215 -0.1082 0.7759
vn 0.4842 -0.0344 0.8743
vn 0.6497 -0.0683 0.7571
vn 0.1394 -0.3971 0.9071
vn 0.4673 -0.6623 0.5856
vn 0.4756 -0.7293 0.4918
vn 0.4189 -0.7535 0.5068
vn 0.7336 0.0979 0.6725
vn 0.1860 -0.6828 0.7066
vn 0.2707 -0.6741 0.6873
vn 0.7727 0.0814 0.6296
vn 0.7238 0.0025 0.6900
vn -0.0033 -0.6837 0.7297
vn 0.3571 -0.6588 0.6621
vn 0.5823 0.0802 0.8090
vn 0.3594 0.1309 0.9240
vn 0.1305 0.0812 0.9881
vn 0.6928 -0.6808 0.2378
vn 0.1378 -0.9805 0.1399
vn 0.3505 -0.9299 0.1115
vn 0.5072 -0.8568 0.0934
vn 0.0035 -0.9132 0.4075
vn 0.0021 -0.9910 0.1341
vn 0.0018 -0.9943 0.1062
vn 0.0042 -0.3871 0.9220
vn 0.0020 0.0357 0.9994
vn 0.0014 -0.9119 0.4104
vn 0.0004 -0.3895 0.9210
vn -0.0024 -0.1603 0.9871
vn -0.1016 -0.1705 0.9801
vn -0.0020 -0.0184 0.9998
vn -0.4555 -0.2030 -0.8668
vn -0.4595 0.0441 -0.8871
vn -0.4007 0.3114 -0.8616
vn -0.7795 0.2108 -0.5899
vn -0.6919 0.4707 -0.5474
vn -0.3514 0.6335 -0.6893
vn -0.8275 0.0118 -0.5614
vn -0.8371 -0.1686 -0.5205
vn -0.3568 -0.6076 -0.7096
vn -0.7362 -0.4704 -0.4865
vn -0.7959 -0.3529 -0.4920
vn -0.4142 -0.4513 -0.7904
vn 0.0942 -0.9955 -0.0121
vn 0.2659 -0.6132 -0.7438
vn 0.4814 -0.4711 -0.7392
vn -0.9894 0.1432 -0.0254
vn -0.9744 0.0692 0.2138
vn -0.9631 0.2192 0.1561
vn -0.9785 0.2061 0.0100
vn -0.4162 0.8957 0.1565
vn -0.3808 0.8653 0.3260
vn -0.9264 -0.3062 -0.2190
vn -0.9532 -0.2813 -0.1107
vn -0.9826 -0.1126 0.1476
vn -0.9205 -0.2221 0.3215
vn -0.9762 -0.1590 -0.1478
vn -0.8717 -0.2275 -0.4339
vn -0.9692 -0.0318 -0.2441
vn -0.9803 -0.0553 -0.1896
vn -0.9685 0.1549 -0.1948
vn -0.7908 0.5661 -0.2326
vn -0.8125 0.5616 0.1565
vn -0.8138 0.5810 0.0139
vn -0.9608 0.0290 0.2759
vn -0.9406 0.1884 0.2824
vn -0.8187 0.2045 0.5366
vn -0.7222 0.4470 0.5279
vn -0.7933 0.5374 0.2862
vn -0.9291 0.0372 0.3679
vn -0.9679 -0.0972 0.2317
vn -0.9174 -0.0822 0.3893
vn -0.6488 -0.1427 0.7474
vn -0.8177 -0.2606 0.5133
vn -0.8054 -0.2453 0.5396
vn -0.7063 -0.0601 0.7054
vn -0.3411 -0.9241 0.1724
vn -0.9397 -0.2899 -0.1814
vn -0.9805 -0.1965 0.0025
vn -0.8580 -0.2236 0.4625
vn -0.4437 -0.7803 0.4407
vn -0.5158 -0.7893 0.3331
vn -0.8004 -0.2638 0.5383
vn -0.8082 -0.3147 0.4977
vn -0.6969 -0.6582 0.2849
vn -0.5157 -0.7823 0.3493
vn -0.6436 -0.3333 0.6890
vn -0.7995 -0.3025 0.5190
vn 0.0039 0.7635 0.6459
vn -0.0745 0.7527 0.6542
vn -0.0764 -0.0195 0.9969
vn 0.0301 -0.0284 0.9991
vn -0.0625 -0.8415 0.5367
vn 0.1069 -0.8416 0.5295
vn -0.3760 0.3355 0.8638
vn -0.3690 0.6415 0.6726
vn -0.5527 0.0395 0.8325
vn -0.7111 -0.0858 0.6978
vn -0.2310 -0.2483 0.9407
vn -0.5565 -0.2160 0.8022
vn -0.2439 -0.0558 0.9682
vn -0.0142 -0.0946 0.9954
vn -0.3622 -0.0855 -0.9282
vn -0.3385 0.0982 -0.9358
vn -0.9076 0.0946 -0.4091
vn -0.8115 -0.0886 -0.5776
vn -0.9697 -0.0327 -0.2423
vn -0.9860 0.1663 -0.0089
vn -0.9836 0.1154 0.1387
vn -0.9951 -0.0599 -0.0789
vn -0.8575 -0.2935 0.4225
vn -0.8744 -0.2391 0.4222
vn -0.4248 -0.1744 0.8883
vn -0.5422 -0.1873 0.8192
vn -0.4117 0.9108 -0.0301
vn -0.3807 0.8712 -0.3101
vn -0.9659 -0.1157 0.2316
vn -0.9238 -0.0207 0.3823
vn -0.7837 0.0677 0.6174
vn -0.4346 0.0032 0.9006
vn -0.6235 -0.0124 0.7818
vn -0.7803 0.1423 0.6090
vn -0.8918 0.0671 0.4474
vn -0.6956 0.2084 0.6875
vn -0.7176 0.3727 0.5884
vn -0.7140 0.4267 0.5551
vn -0.3131 0.1723 -0.9340
vn -0.6481 -0.0922 0.7560
vn -0.4781 0.1988 0.8555
vn -0.4532 0.1476 0.8791
vn -0.2368 -0.1011 0.9663
vn -0.1623 0.7472 0.6445
vn -0.3242 -0.8517 0.4118
vn -0.5838 0.1655 0.7948
vn -0.4941 -0.4160 0.7634
vn -0.1712 0.0346 0.9846
vn -0.2095 -0.4459 0.8702
vn -0.4391 0.1852 0.8791
vn -0.4494 0.0521 0.8918
vn -0.2865 -0.4248 0.8588
vn -0.5725 0.2679 0.7749
vn -0.5504 0.0386 0.8340
vn -0.6404 -0.2471 0.7272
vn -0.7821 -0.0715 0.6190
vn -0.4001 0.4325 0.8080
vn -0.2913 0.2918 0.9110
vn -0.4287 -0.5389 0.7251
vn -0.6466 -0.2179 0.7310
vn -0.4569 -0.8612 0.2227
vn -0.5826 -0.2769 0.7642
vn -0.8571 -0.1514 0.4924
vn -0.8675 -0.4857 0.1075
vn -0.1500 -0.6597 0.7364
vn -0.7564 0.2195 0.6162
vn -0.8086 0.2420 0.5362
vn -0.8966 0.1215 0.4258
vn -0.9563 0.0347 0.2904
vn -0.8044 -0.4289 0.4111
vn 0.0034 -0.3746 0.9272
vn -0.4010 -0.1291 0.9069
vn 0.0228 -0.6770 0.7356
vn 0.1173 -0.5822 0.8045
vn -0.0703 -0.5530 0.8302
vn -0.3292 -0.5336 0.7790
vn -0.5717 -0.2469 0.7825
vn -0.5013 -0.0365 0.8645
vn -0.1646 0.1577 0.9737
vn -0.3068 0.5037 0.8076
vn 0.0040 0.3731 0.9278
vn -0.4656 0.5057 0.7262
vn -0.6946 0.4479 0.5629
vn -0.7899 0.3806 0.4808
vn -0.6228 0.4327 0.6518
vn -0.5683 -0.1337 0.8119
vn -0.8381 -0.0790 0.5397
vn -0.7496 -0.0228 0.6615
vn -0.1668 -0.7945 0.5838
vn -0.3455 -0.7709 0.5351
vn -0.5280 -0.1561 0.8348
vn -0.5161 0.1910 0.8349
vn -0.1993 0.0982 0.9750
vn -0.7251 -0.4172 0.5478
vn -0.8368 0.1947 0.5118
vn -0.3455 -0.7770 0.5262
vn -0.7295 -0.6535 0.2019
vn -0.5004 -0.8172 0.2860
vn -0.2290 -0.1828 0.9561
vn -0.2656 0.0673 0.9617
vn -0.3292 -0.9391 0.0990
vn -0.5004 -0.8595 0.1044
vn -0.5788 -0.3156 0.7520
vn -0.7839 -0.2564 0.5655
vn -0.8154 -0.4690 0.3393
vn -0.7900 -0.6129 0.0129
vn -0.8980 -0.4212 -0.1271
vn -0.6422 -0.1500 0.7517
vn -0.7604 -0.2198 0.6112
vn -0.6117 -0.1227 0.7815
vn -0.3340 -0.0123 0.9425
vn -0.9474 -0.2605 -0.1857
vn -0.8817 -0.3696 -0.2932
vn -0.9755 -0.1693 0.1407
vn -0.9626 -0.1711 0.2099
vn -0.6879 -0.6645 -0.2918
vn -0.8246 -0.3376 -0.4540
vn 0.3457 -0.2228 -0.9115
vn -0.8737 -0.2531 0.4155
vn -0.9251 -0.1987 0.3236
vn -0.6494 0.4303 0.6270
vn 0.1169 -0.9357 -0.3329
vn -0.0439 -0.9990 -0.0085
vn 0.3942 -0.9142 0.0936
vn 0.6252 -0.7803 -0.0178
vn -0.7803 0.4846 0.3954
vn -0.8226 0.4693 0.3211
vn -0.6747 -0.6920 -0.2567
vn -0.1426 -0.9844 0.1029
vn -0.2080 -0.8976 0.3887
vn 0.0088 -0.6960 0.7180
vn -0.5510 0.1454 0.8217
vn 0.3502 -0.5084 0.7867
vn -0.2864 -0.3812 0.8790
vn -0.7318 0.4093 0.5449
vn -0.8908 0.3955 0.2238
vn -0.6953 -0.6087 0.3822
vn -0.9644 -0.1768 -0.1967
vn -0.2865 -0.4514 0.8451
vn -0.2792 -0.3911 0.8770
vn -0.8610 -0.2365 -0.4502
vn -0.3483 -0.4196 -0.8382
vn -0.5656 -0.4545 0.6882
vn -0.4727 -0.8095 0.3481
vn -0.5544 -0.3789 0.7410
vn -0.1821 -0.8968 0.4033
vn -0.5327 -0.2841 0.7972
vn -0.5415 -0.3115 0.7808
vn -0.0516 -0.4232 0.9046
vn -0.6791 0.2004 0.7061
vn -0.5985 0.3557 0.7178
vn -0.6948 -0.0993 0.7123
vn -0.8133 0.0238 0.5813
vn -0.7856 0.1857 0.5902
vn -0.7357 0.3290 0.5921
vn -0.9203 0.2459 -0.3044
vn 0.3093 0.3245 -0.8939
vn 0.4525 -0.1586 -0.8776
vn 0.4273 0.2556 -0.8672
vn 0.4209 0.7243 -0.5461
vn 0.1404 0.9861 -0.0886
vn -0.6451 0.6763 0.3555
vn -0.9637 -0.1770 0.1999
vn -0.9769 -0.1222 -0.1755
vn -0.9751 0.1525 -0.1608
vn -0.6770 -0.4783 0.5594
vn -0.8657 -0.4160 0.2783
vn -0.7205 -0.2326 0.6533
vn -0.8049 -0.0042 0.5934
vn -0.8439 0.0054 0.5364
vn -0.8707 -0.0816 0.4850
vn -0.9759 -0.1901 0.1069
vn -0.9240 0.0069 0.3823
vn -0.9657 -0.1417 0.2177
vn -0.8832 -0.2147 0.4169
vn -0.9734 -0.0345 0.2263
vn -0.9925 -0.0983 0.0721
vn -0.9041 0.0466 0.4247
vn -0.9105 0.1325 0.3917
vn -0.8450 -0.3639 0.3919
vn -0.9719 -0.1156 0.2052
vn -0.9557 -0.1391 -0.2594
vn -0.9626 -0.1400 -0.2318
vn -0.9102 -0.1974 -0.3641
vn -0.9294 -0.3596 0.0827
vn -0.9843 0.1763 -0.0031
vn -0.8159 0.1414 0.5606
vn -0.8208 -0.1339 0.5553
vn -0.9169 -0.3946 0.0594
vn -0.8958 0.4218 0.1401
vn -0.3627 0.4108 -0.8365
vn -0.3775 -0.4559 -0.8060
vn -0.7517 0.5354 0.3850
vn -0.6914 0.4468 -0.5677
vn -0.5919 -0.4900 -0.6400
vn -0.8667 -0.3064 0.3936
vn -0.9693 -0.2333 -0.0777
vn -0.9836 -0.1720 0.0545
vn -0.9196 -0.3195 -0.2287
vn 0.2542 -0.9669 -0.0225
vn 0.8103 -0.3717 0.4530
vn 0.2247 0.9700 0.0933
vn -0.0638 0.9887 0.1357
vn -0.0729 -0.9693 -0.2349
vn -0.2565 0.9160 0.3086
vn -0.7068 -0.6906 0.1535
vn -0.4195 -0.8869 -0.1933
vn -0.6669 -0.1989 0.7181
vn -0.4942 -0.0626 0.8671
vn -0.8254 -0.2265 0.5172
vn -0.4372 0.0526 0.8978
vn -0.8180 -0.3181 0.4792
vn -0.5996 -0.1995 0.7750
vn -0.5453 0.0431 0.8371
vn -0.9216 -0.2220 0.3184
vn -0.9589 -0.1745 0.2237
vn -0.9077 -0.2024 0.3675
vn -0.7268 -0.6739 0.1326
vn -0.9554 -0.1844 0.2305
vn -0.9440 -0.2725 0.1858
vn -0.9007 -0.2942 0.3196
vn -0.9355 0.2174 -0.2786
vn -0.6658 0.1391 0.7330
vn -0.5259 0.0655 0.8480
vn -0.1920 -0.1776 0.9652
vn -0.3514 -0.3462 0.8699
vn -0.5329 -0.2274 0.8150
vn -0.4486 -0.4518 0.7711
vn -0.6223 -0.3518 0.6992
vn -0.6226 -0.1053 0.7754
vn -0.5637 0.0148 0.8259
vn -0.4867 -0.0345 0.8729
vn -0.6504 -0.0673 0.7566
vn -0.1410 -0.3960 0.9073
vn -0.4808 -0.7263 0.4913
vn -0.4719 -0.6565 0.5885
vn -0.7381 0.0803 0.6699
vn -0.4232 -0.7507 0.5073
vn -0.2770 -0.6636 0.6949
vn -0.1945 -0.6742 0.7125
vn -0.7249 -0.0041 0.6888
vn -0.7740 0.0707 0.6292
vn -0.3604 -0.6509 0.6682
vn -0.3628 0.1348 0.9220
vn -0.5855 0.0794 0.8068
vn -0.1309 0.0856 0.9877
vn -0.6932 -0.6802 0.2383
vn -0.1377 -0.9805 0.1401
vn -0.3524 -0.9292 0.1114
vn -0.5077 -0.8565 0.0934
vn 0.0972 -0.1704 0.9806
vt 0.986325 0.434659
vt 0.979796 0.497666
vt 0.904204 0.480506
vt 0.908601 0.437503
vt 0.953015 0.564817
vt 0.889541 0.528891
vt 0.848888 0.586498
vt 0.818436 0.549688
vt 0.826990 0.503776
vt 0.829900 0.460967
vt 0.830288 0.423882
vt 0.898891 0.349319
vt 0.905210 0.388243
vt 0.829543 0.383446
vt 0.829361 0.348231
vt 0.889372 0.638249
vt 0.804319 0.924183
vt 0.770011 0.936208
vt 0.768000 0.921691
vt 0.726156 0.448672
vt 0.730032 0.492617
vt 0.687531 0.489519
vt 0.698214 0.432198
vt 0.674835 0.610502
vt 0.656230 0.691324
vt 0.572289 0.652194
vt 0.614496 0.589896
vt 0.691314 0.297149
vt 0.684426 0.262583
vt 0.710882 0.271197
vt 0.714420 0.306539
vt 0.785803 0.409737
vt 0.784822 0.452191
vt 0.744990 0.438441
vt 0.754110 0.395633
vt 0.779942 0.495903
vt 0.774622 0.547455
vt 0.726278 0.554244
vt 0.684668 0.549043
vt 0.636482 0.483612
vt 0.641071 0.432375
vt 0.635664 0.537473
vt 0.588026 0.522269
vt 0.588796 0.473785
vt 0.619033 0.416815
vt 0.646191 0.396346
vt 0.597105 0.385287
vt 0.552145 0.314796
vt 0.541362 0.308257
vt 0.551375 0.298042
vt 0.562019 0.309700
vt 0.695042 0.340234
vt 0.691873 0.350909
vt 0.688552 0.347589
vt 0.694093 0.329841
vt 0.509876 0.363208
vt 0.510486 0.364753
vt 0.505147 0.366475
vt 0.504511 0.365083
vt 0.537315 0.264514
vt 0.537458 0.276141
vt 0.518695 0.279087
vt 0.519710 0.268023
vt 0.257134 0.823925
vt 0.237435 0.824031
vt 0.256938 0.788482
vt 0.280614 0.798184
vt 0.225848 0.805919
vt 0.234507 0.776069
vt 0.554092 0.543489
vt 0.538582 0.482387
vt 0.965451 0.319076
vt 0.978355 0.367842
vt 0.531814 0.289526
vt 0.517908 0.291899
vt 0.527413 0.096929
vt 0.517887 0.019282
vt 0.530419 0.021545
vt 0.560217 0.118074
vt 0.888454 0.295648
vt 0.841571 0.291209
vt 0.816971 0.219992
vt 0.881168 0.238453
vt 0.768743 0.192016
vt 0.706305 0.160163
vt 0.673485 0.084804
vt 0.740119 0.127065
vt 0.569512 0.280292
vt 0.580703 0.304848
vt 0.515015 0.306078
vt 0.525029 0.303062
vt 0.498532 0.568263
vt 0.498538 0.482106
vt 0.727371 0.619326
vt 0.733462 0.699142
vt 0.792484 0.613710
vt 0.684698 0.393860
vt 0.819613 0.680924
vt 0.647216 0.145782
vt 0.612422 0.129825
vt 0.577521 0.041798
vt 0.619851 0.062174
vt 0.575514 0.454209
vt 0.604584 0.413285
vt 0.585918 0.388082
vt 0.505963 0.382805
vt 0.498602 0.381051
vt 0.498589 0.373117
vt 0.503238 0.373760
vt 0.948831 0.225570
vt 0.879779 0.177354
vt 0.950226 0.172807
vt 0.556551 0.382415
vt 0.563034 0.367988
vt 0.540937 0.460469
vt 0.275725 0.758567
vt 0.279545 0.760131
vt 0.257587 0.762437
vt 0.501977 0.369219
vt 0.498586 0.369633
vt 0.498576 0.365994
vt 0.501854 0.365964
vt 0.498556 0.441457
vt 0.509506 0.441438
vt 0.509207 0.457247
vt 0.498549 0.458702
vt 0.531979 0.384572
vt 0.524558 0.370250
vt 0.542611 0.446057
vt 0.578385 0.397070
vt 0.596925 0.413213
vt 0.586682 0.415173
vt 0.570596 0.403330
vt 0.552393 0.391744
vt 0.548919 0.399260
vt 0.571569 0.442926
vt 0.567992 0.430354
vt 0.161197 0.766428
vt 0.144608 0.759053
vt 0.157630 0.754562
vt 0.171289 0.761126
vt 0.546801 0.432882
vt 0.516465 0.384451
vt 0.515709 0.375833
vt 0.511969 0.367658
vt 0.519581 0.357517
vt 0.521949 0.362524
vt 0.532579 0.416002
vt 0.537742 0.422322
vt 0.531146 0.424587
vt 0.529739 0.417103
vt 0.548519 0.427352
vt 0.564669 0.427316
vt 0.574727 0.418436
vt 0.565231 0.411145
vt 0.547563 0.407993
vt 0.532975 0.414267
vt 0.531767 0.406752
vt 0.525479 0.410264
vt 0.528916 0.396240
vt 0.513523 0.410501
vt 0.515403 0.421234
vt 0.506312 0.423466
vt 0.504871 0.408916
vt 0.523353 0.419996
vt 0.524382 0.426145
vt 0.515999 0.431439
vt 0.507937 0.355181
vt 0.502142 0.355939
vt 0.503086 0.353590
vt 0.508687 0.353878
vt 0.506384 0.369061
vt 0.514326 0.358378
vt 0.500945 0.359863
vt 0.501117 0.363736
vt 0.498590 0.363754
vt 0.498578 0.360528
vt 0.505672 0.307853
vt 0.498566 0.308379
vt 0.498559 0.294132
vt 0.506798 0.293678
vt 0.526263 0.253418
vt 0.534178 0.254619
vt 0.551772 0.327845
vt 0.562236 0.328409
vt 0.498581 0.423021
vt 0.647679 0.228665
vt 0.662455 0.274049
vt 0.620673 0.258063
vt 0.533925 0.304472
vt 0.541373 0.293610
vt 0.583062 0.119530
vt 0.547812 0.027832
vt 0.780255 0.364049
vt 0.714432 0.340465
vt 0.679429 0.355781
vt 0.645682 0.362088
vt 0.693204 0.894402
vt 0.698038 0.887808
vt 0.771432 0.908010
vt 0.584983 0.329271
vt 0.609125 0.359135
vt 0.498633 0.409824
vt 0.498653 0.391869
vt 0.505517 0.393520
vt 0.503701 0.362847
vt 0.508028 0.359687
vt 0.509015 0.361592
vt 0.503186 0.363996
vt 0.513472 0.371807
vt 0.507460 0.371017
vt 0.141379 0.773057
vt 0.135437 0.767420
vt 0.166947 0.773057
vt 0.511766 0.254467
vt 0.508190 0.269734
vt 0.512653 0.356816
vt 0.521477 0.355404
vt 0.177060 0.769423
vt 0.507470 0.280513
vt 0.515736 0.395519
vt 0.522921 0.368729
vt 0.504145 0.357918
vt 0.502712 0.360478
vt 0.507546 0.357504
vt 0.502089 0.362927
vt 0.509370 0.358315
vt 0.582792 0.208562
vt 0.758114 0.290948
vt 0.510370 0.178626
vt 0.498615 0.179558
vt 0.498548 0.137151
vt 0.509064 0.136512
vt 0.828555 0.326516
vt 0.958938 0.292212
vt 0.894032 0.329139
vt 0.954642 0.265534
vt 0.523692 0.176314
vt 0.544175 0.169580
vt 0.533040 0.205785
vt 0.514865 0.209730
vt 0.519943 0.136077
vt 0.537614 0.140933
vt 0.498512 0.095082
vt 0.512985 0.095864
vt 0.709794 0.863715
vt 0.692694 0.846950
vt 0.709807 0.850138
vt 0.753167 0.856064
vt 0.750288 0.879254
vt 0.766604 0.864914
vt 0.652572 0.860888
vt 0.658956 0.856411
vt 0.658269 0.953177
vt 0.599582 0.865704
vt 0.631228 0.860640
vt 0.676009 0.926514
vt 0.627977 0.830885
vt 0.614402 0.807194
vt 0.636495 0.824624
vt 0.647111 0.819071
vt 0.683045 0.754562
vt 0.747758 0.887560
vt 0.708535 0.870469
vt 0.685813 0.852401
vt 0.836511 0.920418
vt 0.795610 0.953177
vt 0.842100 0.887378
vt 0.804274 0.910250
vt 0.656558 0.820818
vt 0.663474 0.853202
vt 0.701107 0.881589
vt 0.786750 0.901313
vt 0.805603 0.847904
vt 0.690246 0.785614
vt 0.761526 0.899456
vt 0.765673 0.803620
vt 0.776115 0.766028
vt 0.782655 0.796056
vt 0.824148 0.771112
vt 0.663182 0.822292
vt 0.670386 0.848607
vt 0.703888 0.877569
vt 0.777568 0.886700
vt 0.790812 0.854217
vt 0.697634 0.803701
vt 0.753807 0.894187
vt 0.740545 0.816763
vt 0.724528 0.813105
vt 0.726189 0.806329
vt 0.741865 0.810578
vt 0.782000 0.840694
vt 0.735953 0.839699
vt 0.723525 0.832117
vt 0.747036 0.836423
vt 0.748873 0.834798
vt 0.752551 0.836980
vt 0.749425 0.838689
vt 0.748309 0.842638
vt 0.763806 0.839003
vt 0.746135 0.825448
vt 0.741188 0.837175
vt 0.678350 0.329583
vt 0.671642 0.302154
vt 0.767990 0.323135
vt 0.563472 0.425576
vt 0.573158 0.418455
vt 0.564833 0.412013
vt 0.547673 0.409033
vt 0.548605 0.425391
vt 0.533424 0.414944
vt 0.533677 0.415939
vt 0.538275 0.421567
vt 0.236120 0.825991
vt 0.219709 0.805110
vt 0.257989 0.825991
vt 0.287323 0.802297
vt 0.225684 0.770625
vt 0.277982 0.755981
vt 0.281950 0.757025
vt 0.250816 0.754562
vt 0.554311 0.344178
vt 0.577933 0.349031
vt 0.542307 0.356489
vt 0.498629 0.355947
vt 0.498613 0.352828
vt 0.525636 0.362990
vt 0.552844 0.277685
vt 0.541961 0.337540
vt 0.531515 0.346887
vt 0.612497 0.329802
vt 0.642023 0.329642
vt 0.609800 0.303899
vt 0.574609 0.257213
vt 0.640480 0.304704
vt 0.637718 0.281376
vt 0.601768 0.277452
vt 0.807817 0.161932
vt 0.542436 0.319685
vt 0.531879 0.319372
vt 0.498571 0.336348
vt 0.505003 0.338162
vt 0.519109 0.319918
vt 0.510874 0.319487
vt 0.534284 0.327641
vt 0.542670 0.322510
vt 0.518307 0.335478
vt 0.525235 0.332498
vt 0.510527 0.337521
vt 0.525405 0.319857
vt 0.504752 0.318964
vt 0.527638 0.326056
vt 0.533616 0.324081
vt 0.539898 0.322297
vt 0.540548 0.321494
vt 0.505390 0.329166
vt 0.511926 0.328883
vt 0.533404 0.323797
vt 0.527937 0.325365
vt 0.498561 0.328837
vt 0.520050 0.327900
vt 0.519726 0.327464
vt 0.511852 0.328304
vt 0.505307 0.328693
vt 0.554818 0.260175
vt 0.514603 0.235026
vt 0.532559 0.232570
vt 0.554202 0.232459
vt 0.498576 0.211111
vt 0.498567 0.236800
vt 0.498569 0.256925
vt 0.498550 0.318377
vt 0.498561 0.328551
vt 0.498566 0.270455
vt 0.498564 0.281391
vt 0.498483 0.054224
vt 0.508428 0.058943
vt 0.498506 0.016317
vt 0.010560 0.434586
vt 0.088491 0.437471
vt 0.092959 0.480442
vt 0.017167 0.497624
vt 0.107501 0.528850
vt 0.044007 0.564792
vt 0.170098 0.503716
vt 0.178612 0.549640
vt 0.148179 0.586444
vt 0.167222 0.460931
vt 0.166833 0.423847
vt 0.098221 0.349209
vt 0.167777 0.348178
vt 0.167579 0.383397
vt 0.091888 0.388169
vt 0.107656 0.638217
vt 0.394718 0.923635
vt 0.431253 0.921153
vt 0.429234 0.935735
vt 0.270946 0.448678
vt 0.298872 0.432185
vt 0.309558 0.489528
vt 0.267056 0.492604
vt 0.322217 0.610509
vt 0.382577 0.589909
vt 0.424767 0.652200
vt 0.340814 0.691325
vt 0.305815 0.297148
vt 0.282707 0.306528
vt 0.286252 0.271203
vt 0.312704 0.262592
vt 0.211328 0.409705
vt 0.243004 0.395612
vt 0.252065 0.438448
vt 0.212305 0.452151
vt 0.217153 0.495861
vt 0.222442 0.547420
vt 0.312398 0.549046
vt 0.270778 0.554233
vt 0.356050 0.432384
vt 0.360618 0.483637
vt 0.408289 0.473818
vt 0.409066 0.522296
vt 0.361418 0.537484
vt 0.378087 0.416841
vt 0.350922 0.396349
vt 0.399998 0.385287
vt 0.444951 0.314802
vt 0.435120 0.309713
vt 0.445757 0.298040
vt 0.455756 0.308228
vt 0.302076 0.340232
vt 0.303029 0.329835
vt 0.308563 0.347589
vt 0.305204 0.350913
vt 0.487263 0.363241
vt 0.492633 0.365105
vt 0.492001 0.366512
vt 0.486657 0.364777
vt 0.459822 0.264511
vt 0.477430 0.268019
vt 0.478444 0.279077
vt 0.459685 0.276132
vt 0.327275 0.757505
vt 0.348786 0.785829
vt 0.323008 0.793527
vt 0.307452 0.756481
vt 0.298678 0.803539
vt 0.293755 0.772426
vt 0.458507 0.482410
vt 0.443028 0.543532
vt 0.031528 0.318978
vt 0.018550 0.367735
vt 0.479221 0.291875
vt 0.465321 0.289502
vt 0.469637 0.096957
vt 0.436877 0.118075
vt 0.466581 0.021524
vt 0.479131 0.019301
vt 0.108658 0.295611
vt 0.116016 0.238441
vt 0.180203 0.220030
vt 0.155590 0.291182
vt 0.228389 0.192045
vt 0.257005 0.127107
vt 0.323621 0.084843
vt 0.290822 0.160196
vt 0.427617 0.280285
vt 0.416429 0.304851
vt 0.482071 0.306084
vt 0.472068 0.303065
vt 0.269684 0.619318
vt 0.263572 0.699142
vt 0.204549 0.613685
vt 0.312419 0.393859
vt 0.177402 0.680923
vt 0.349896 0.145808
vt 0.377234 0.062196
vt 0.419525 0.041813
vt 0.384683 0.129843
vt 0.421567 0.454231
vt 0.392512 0.413330
vt 0.411123 0.388124
vt 0.491151 0.382813
vt 0.493916 0.373767
vt 0.043297 0.225120
vt 0.046933 0.172486
vt 0.117343 0.177451
vt 0.434046 0.368021
vt 0.440497 0.382141
vt 0.456145 0.460487
vt 0.337429 0.823736
vt 0.342689 0.823267
vt 0.320253 0.820027
vt 0.495189 0.369225
vt 0.495260 0.365999
vt 0.487886 0.457231
vt 0.487628 0.441471
vt 0.465157 0.384477
vt 0.472532 0.370252
vt 0.454452 0.446072
vt 0.418694 0.397099
vt 0.426489 0.403394
vt 0.410354 0.415231
vt 0.400165 0.413267
vt 0.444666 0.391795
vt 0.448202 0.399286
vt 0.429060 0.430400
vt 0.425508 0.442962
vt 0.193324 0.766436
vt 0.183073 0.760867
vt 0.197237 0.754562
vt 0.210267 0.759184
vt 0.450278 0.432907
vt 0.480666 0.384428
vt 0.481422 0.375828
vt 0.485174 0.367660
vt 0.475214 0.362523
vt 0.477582 0.357549
vt 0.464488 0.416012
vt 0.467324 0.417073
vt 0.465945 0.424602
vt 0.459346 0.422355
vt 0.448553 0.427383
vt 0.432424 0.427294
vt 0.422240 0.418517
vt 0.431841 0.411232
vt 0.449499 0.408032
vt 0.465327 0.406730
vt 0.464077 0.414210
vt 0.468195 0.396230
vt 0.471583 0.410164
vt 0.483589 0.410464
vt 0.492323 0.408881
vt 0.490834 0.423434
vt 0.481714 0.421212
vt 0.473753 0.419980
vt 0.472726 0.426155
vt 0.481141 0.431432
vt 0.489176 0.355176
vt 0.488432 0.353869
vt 0.494054 0.353609
vt 0.494992 0.355956
vt 0.490764 0.369063
vt 0.482796 0.358410
vt 0.496187 0.359864
vt 0.496024 0.363737
vt 0.491436 0.307849
vt 0.490318 0.293666
vt 0.470875 0.253411
vt 0.462958 0.254617
vt 0.445277 0.327852
vt 0.434893 0.328422
vt 0.349457 0.228677
vt 0.376451 0.258062
vt 0.334669 0.274048
vt 0.463174 0.304455
vt 0.455757 0.293605
vt 0.414033 0.119536
vt 0.449208 0.027821
vt 0.216885 0.364018
vt 0.282669 0.340397
vt 0.317690 0.355783
vt 0.351436 0.362092
vt 0.427803 0.907418
vt 0.501187 0.887187
vt 0.506098 0.893939
vt 0.412145 0.329286
vt 0.387997 0.359149
vt 0.491552 0.393532
vt 0.493429 0.362858
vt 0.493945 0.363985
vt 0.488135 0.361603
vt 0.489086 0.359749
vt 0.489684 0.371017
vt 0.483662 0.371810
vt 0.213276 0.773448
vt 0.219331 0.767880
vt 0.187513 0.773448
vt 0.485383 0.254457
vt 0.488960 0.269733
vt 0.484462 0.356845
vt 0.475630 0.355355
vt 0.177438 0.769309
vt 0.489653 0.280511
vt 0.481333 0.395494
vt 0.474220 0.368701
vt 0.492971 0.357943
vt 0.494417 0.360481
vt 0.489544 0.357523
vt 0.495045 0.362939
vt 0.487752 0.358320
vt 0.414331 0.208560
vt 0.239037 0.290947
vt 0.486781 0.178715
vt 0.487965 0.136511
vt 0.168591 0.326457
vt 0.038097 0.292120
vt 0.042400 0.265426
vt 0.103056 0.329057
vt 0.473400 0.176326
vt 0.464093 0.205783
vt 0.452946 0.169564
vt 0.482277 0.209694
vt 0.459515 0.140943
vt 0.477180 0.136102
vt 0.484037 0.095896
vt 0.489487 0.863094
vt 0.446097 0.855434
vt 0.489549 0.849584
vt 0.506474 0.846373
vt 0.448928 0.878582
vt 0.432576 0.864194
vt 0.540040 0.855751
vt 0.546522 0.860246
vt 0.541186 0.952561
vt 0.523479 0.926161
vt 0.567988 0.859854
vt 0.599204 0.864614
vt 0.570842 0.830055
vt 0.583995 0.806338
vt 0.562236 0.823907
vt 0.551661 0.818472
vt 0.515467 0.754562
vt 0.451482 0.886858
vt 0.490702 0.869793
vt 0.513295 0.851783
vt 0.362361 0.919954
vt 0.403617 0.952561
vt 0.356534 0.886827
vt 0.394740 0.909767
vt 0.542370 0.820263
vt 0.535501 0.852574
vt 0.498077 0.880862
vt 0.412371 0.900779
vt 0.393223 0.846964
vt 0.508553 0.785492
vt 0.437710 0.898793
vt 0.433620 0.803759
vt 0.423038 0.766443
vt 0.374308 0.769433
vt 0.416283 0.794528
vt 0.535787 0.821755
vt 0.528645 0.848007
vt 0.495291 0.876829
vt 0.421572 0.886057
vt 0.408120 0.853334
vt 0.501329 0.803505
vt 0.445419 0.893530
vt 0.458596 0.816890
vt 0.457246 0.810657
vt 0.472942 0.806331
vt 0.474639 0.813031
vt 0.417038 0.839625
vt 0.464109 0.839094
vt 0.475915 0.831706
vt 0.452470 0.835163
vt 0.450003 0.837575
vt 0.446655 0.835848
vt 0.450505 0.833890
vt 0.451222 0.841680
vt 0.435268 0.838078
vt 0.452303 0.825837
vt 0.459121 0.835321
vt 0.325466 0.302158
vt 0.318772 0.329580
vt 0.229164 0.323123
vt 0.433519 0.425782
vt 0.423713 0.418529
vt 0.432173 0.411989
vt 0.449399 0.409039
vt 0.448473 0.425511
vt 0.463663 0.414835
vt 0.463445 0.415949
vt 0.458824 0.421615
vt 0.287701 0.772490
vt 0.306393 0.754562
vt 0.327779 0.755643
vt 0.356156 0.782285
vt 0.289163 0.807933
vt 0.344407 0.826380
vt 0.339304 0.827276
vt 0.312657 0.827276
vt 0.442779 0.344180
vt 0.454754 0.356488
vt 0.419159 0.349111
vt 0.471535 0.362993
vt 0.444290 0.277677
vt 0.455153 0.337545
vt 0.465592 0.346837
vt 0.384628 0.329808
vt 0.355100 0.329644
vt 0.387326 0.303900
vt 0.422520 0.257213
vt 0.356644 0.304704
vt 0.359398 0.281368
vt 0.395359 0.277446
vt 0.189333 0.162002
vt 0.465251 0.319367
vt 0.454599 0.319590
vt 0.492132 0.338160
vt 0.486255 0.319488
vt 0.478027 0.319943
vt 0.454353 0.322582
vt 0.462846 0.327673
vt 0.471886 0.332516
vt 0.478814 0.335495
vt 0.486622 0.337554
vt 0.471730 0.319870
vt 0.492363 0.318949
vt 0.463496 0.324142
vt 0.469476 0.326091
vt 0.456529 0.321510
vt 0.457179 0.322355
vt 0.485173 0.328934
vt 0.491729 0.329175
vt 0.469207 0.325311
vt 0.463705 0.323858
vt 0.477055 0.327948
vt 0.485264 0.328273
vt 0.477375 0.327523
vt 0.491811 0.328669
vt 0.442315 0.260174
vt 0.482540 0.235014
vt 0.464574 0.232565
vt 0.442927 0.232457
vt 0.488618 0.058950
s 1
f 109/1/1 24/2/2 27/3/3 110/4/4
f 24/2/2 25/5/5 28/6/6 27/3/3
f 28/6/6 7/7/7 3/8/8 8/9/9
f 27/3/3 28/6/6 8/9/9 9/10/10
f 110/4/4 27/3/3 9/10/10 108/11/11
f 313/12/12 26/13/13 10/14/14 310/15/15
f 25/5/5 6/16/16 7/7/7 28/6/6
f 190/17/17 33/18/18 187/19/19
f 189/20/20 179/21/21 34/22/22 196/23/23
f 48/24/24 49/25/25 51/26/26 50/27/27
f 316/28/28 12/29/29 177/30/30 319/31/31
f 231/32/32 230/33/33 30/34/34 111/35/35
f 230/33/33 31/36/36 30/34/34
f 8/9/9 3/8/8 14/37/37 31/36/36
f 179/21/21 178/38/38 15/39/39 34/22/22
f 196/23/23 34/22/22 37/40/40 36/41/41
f 37/40/40 16/42/42 1/43/43 58/44/44
f 36/41/41 37/40/40 58/44/44 59/45/45
f 113/46/46 36/41/41 59/45/45 100/47/47
f 117/48/48 115/49/49 103/50/50 93/51/51
f 188/52/52 195/53/53 256/54/54 229/55/55
f 152/56/56 120/57/57 137/58/58 150/59/59
f 308/60/60 105/61/61 133/62/62 141/63/63
f 19/64/64 242/65/65 65/66/66 244/67/67
f 242/65/65 17/68/68 245/69/69 65/66/66
f 58/44/44 1/43/43 21/70/70 68/71/71
f 314/72/72 23/73/73 26/13/13 313/12/12
f 133/62/62 105/61/61 311/74/74 129/75/75
f 166/76/76 134/77/77 106/78/78 164/79/79
f 154/80/80 273/81/81 272/82/82 157/83/83
f 271/84/84 155/85/85 56/86/86 270/87/87
f 35/88/88 11/89/89 93/51/51 103/50/50
f 309/90/90 129/75/75 311/74/74 118/91/91
f 68/71/71 21/70/70 22/92/92 69/93/93
f 181/94/94 182/95/95 49/25/25 48/24/24
f 3/8/8 7/7/7 46/96/96 14/37/37
f 198/97/97 196/23/23 36/41/41 113/46/46
f 7/7/7 6/16/16 47/98/98 46/96/96
f 16/42/42 50/27/27 21/70/70 1/43/43
f 34/22/22 15/39/39 16/42/42 37/40/40
f 178/38/38 181/94/94 48/24/24 15/39/39
f 50/27/27 51/26/26 22/92/92 21/70/70
f 185/99/99 267/100/100 268/101/101 183/102/102
f 274/103/103 275/104/104 59/45/45 58/44/44
f 275/104/104 276/105/105 100/47/47 59/45/45
f 282/106/106 278/107/107 61/108/108 350/109/109
f 158/110/110 157/83/83 53/111/111 54/112/112
f 276/105/105 277/113/113 101/114/114 100/47/47
f 279/115/115 274/103/103 58/44/44 68/71/71
f 247/116/116 60/117/117 244/67/67 65/66/66
f 62/118/118 247/116/116 65/66/66 245/69/69
f 353/119/119 144/120/120 67/121/121 352/122/122
f 43/123/123 78/124/124 40/125/125 63/126/126
f 280/127/127 345/128/128 101/114/114 277/113/113
f 40/125/125 78/124/124 66/129/129 279/115/115
f 72/130/130 18/131/131 80/132/132 82/133/133
f 64/134/134 72/130/130 82/133/133 79/135/135
f 18/131/131 70/136/136 81/137/137 80/132/132
f 142/138/138 121/139/139 90/140/140 139/141/141
f 63/126/126 40/125/125 68/71/71 69/93/93
f 70/136/136 66/129/129 76/142/142 81/137/137
f 281/143/143 346/144/144 345/128/128 280/127/127
f 145/145/145 120/57/57 95/146/146 143/147/147
f 39/148/148 240/149/149 85/150/150 83/151/151
f 74/152/152 233/153/153 81/137/137 76/142/142
f 71/154/154 235/155/155 82/133/133 80/132/132
f 73/156/156 238/157/157 84/158/158 79/135/135
f 238/157/157 39/148/148 83/151/151 84/158/158
f 235/155/155 73/156/156 79/135/135 82/133/133
f 233/153/153 71/154/154 80/132/132 81/137/137
f 240/149/149 74/152/152 76/142/142 85/150/150
f 84/158/158 86/159/159 75/160/160
f 126/161/161 125/162/162 131/163/163 138/164/164
f 87/165/165 86/159/159 84/158/158 83/151/151
f 88/166/166 87/165/165 83/151/151 85/150/150
f 88/166/166 85/150/150 76/142/142 66/129/129
f 78/124/124 124/167/167 88/166/166 66/129/129
f 281/143/143 282/106/106 350/109/109 346/144/144
f 126/161/161 86/159/159 87/165/165 125/162/162
f 149/168/168 148/169/169 250/170/170 130/171/171
f 146/172/172 137/58/58 120/57/57 145/145/145
f 152/56/56 153/173/173 95/146/146 120/57/57
f 147/174/174 151/175/175 251/176/176 128/177/177
f 334/178/178 20/179/179 94/180/180 331/181/181
f 161/182/182 107/183/183 308/60/60 141/63/63
f 116/184/184 117/48/48 93/51/51 92/185/185
f 78/124/124 43/123/123 42/186/186 131/163/163
f 262/187/187 12/29/29 97/188/188 264/189/189
f 328/190/190 118/91/91 311/74/74 321/191/191
f 265/192/192 164/79/79 106/78/78 55/193/193
f 232/194/194 231/32/32 111/35/35 29/195/195
f 255/196/196 198/97/97 113/46/46 252/197/197
f 187/19/19 184/198/198 167/199/199 197/200/200
f 26/13/13 110/4/4 108/11/11 10/14/14
f 195/53/53 198/97/97 255/196/196 256/54/54
f 114/201/201 92/185/185 93/51/51 11/89/89
f 254/202/202 252/197/197 113/46/46 100/47/47
f 87/165/165 88/166/166 124/167/167 125/162/162
f 138/164/164 89/203/203 41/204/204 135/205/205
f 140/206/206 127/207/207 349/208/208 351/209/209
f 146/172/172 145/145/145 123/210/210 136/211/211
f 140/212/206 91/213/212 121/139/139 142/138/138
f 127/214/207 140/212/206 142/138/138
f 341/215/213 161/182/182 141/63/63 330/216/214
f 151/175/175 351/209/209 352/122/122
f 348/217/215 149/168/168 130/171/171 347/218/216
f 127/214/207 142/138/138 139/141/141 77/219/217
f 332/220/218 133/62/62 129/75/75 331/181/181
f 330/216/214 141/63/63 133/62/62 332/220/218
f 42/186/186 89/203/203 138/164/164 131/163/163
f 86/159/159 126/161/161 122/221/219 75/160/160
f 123/210/210 145/145/145 143/147/147 38/222/220
f 350/109/109 61/108/108 144/120/120 353/119/119
f 90/223/140 121/224/139 147/174/174 148/169/169
f 139/225/141 90/223/140 148/169/169 149/168/168
f 91/226/212 140/206/206 351/209/209 151/175/175
f 124/167/167 78/124/124 131/163/163 125/162/162
f 121/224/139 91/226/212 151/175/175 147/174/174
f 127/207/207 77/227/217 348/217/215 349/208/208
f 77/227/217 139/225/141 149/168/168 348/217/215
f 23/73/73 109/1/1 110/4/4 26/13/13
f 15/39/39 48/24/24 50/27/27 16/42/42
f 177/30/30 12/29/29 267/100/100 185/99/99
f 262/187/187 307/228/221 164/79/79 265/192/192
f 177/30/30 185/99/99 155/85/85 13/229/222
f 336/230/223 44/231/224 156/232/225 337/233/226
f 2/234/227 13/229/222 155/85/85 271/84/84
f 5/235/228 4/236/229 154/80/80 52/237/230
f 132/238/231 104/239/232 307/228/221 162/240/233
f 336/230/223 132/238/231 162/240/233 340/241/234
f 132/238/231 160/242/235 159/243/236 104/239/232
f 337/233/226 156/232/225 165/244/237 335/245/238
f 159/243/236 160/242/235 166/76/76 164/79/79
f 176/246/239 208/247/240 220/248/241 222/249/242
f 210/250/243 176/246/239 222/249/242 170/251/244
f 184/198/198 186/252/245 191/253/246 167/199/199
f 111/254/35 30/255/34 32/256/247 172/257/248
f 175/258/249 32/256/247 30/255/34 189/259/20
f 180/260/250 192/261/251 191/253/246 186/252/245
f 189/259/20 196/262/23 192/261/251 180/260/250
f 169/263/252 209/264/253 176/246/239 210/250/243
f 209/264/253 168/265/254 208/247/240 176/246/239
f 188/266/52 29/267/195 33/18/18 190/17/17
f 195/268/53 188/266/52 190/17/17 194/269/255
f 180/260/250 175/258/249 189/259/20
f 32/256/247 175/258/249 180/260/250 186/252/245
f 172/257/248 32/256/247 186/252/245 184/198/198
f 52/237/230 154/80/80 157/83/83 158/110/110
f 33/18/18 172/257/248 184/198/198 187/19/19
f 155/85/85 185/99/99 183/102/102 56/86/86
f 14/37/37 46/96/96 181/94/94 178/38/38
f 46/96/96 47/98/98 182/95/95 181/94/94
f 188/52/52 229/55/55 29/195/195
f 31/36/36 14/37/37 178/38/38 179/21/21
f 30/34/34 31/36/36 179/21/21 189/20/20
f 194/269/255 190/17/17 187/19/19 197/200/200
f 29/267/195 111/254/35 172/257/248 33/18/18
f 174/270/256 199/271/257 191/253/246 192/261/251
f 199/271/257 193/272/258 167/199/199 191/253/246
f 173/273/259 203/274/260 195/268/53 194/269/255
f 216/275/261 174/270/256 192/261/251 196/262/23
f 205/276/262 173/273/259 194/269/255 197/200/200
f 193/272/258 205/276/262 197/200/200 167/199/199
f 215/277/263 216/275/261 196/262/23 198/278/97
f 203/274/260 215/279/263 198/280/97 195/268/53
f 200/281/264 207/282/265 199/271/257 174/270/256
f 207/282/265 201/283/266 193/272/258 199/271/257
f 202/284/267 211/285/268 203/274/260 173/273/259
f 217/286/269 200/281/264 174/270/256 216/275/261
f 213/287/270 202/284/267 173/273/259 205/276/262
f 201/283/266 213/287/270 205/276/262 193/272/258
f 223/288/271 212/289/272 204/290/273 112/291/274
f 211/285/268 221/292/275 215/279/263 203/274/260
f 208/247/240 168/265/254 207/282/265 200/281/264
f 168/265/254 209/264/253 201/283/266 207/282/265
f 210/250/243 170/251/244 211/285/268 202/284/267
f 220/248/241 208/247/240 200/281/264 217/286/269
f 169/263/252 210/250/243 202/284/267 213/287/270
f 209/264/253 169/263/252 213/287/270 201/283/266
f 224/293/276 171/294/277 212/289/272 223/288/271
f 170/251/244 222/249/242 221/292/275 211/285/268
f 112/291/274 204/290/273 216/275/261 215/277/263
f 204/290/273 212/289/272 217/286/269 216/275/261
f 223/288/271 112/291/274 215/277/263 221/292/275
f 171/294/277 224/293/276 222/249/242 220/248/241
f 212/289/272 171/294/277 220/248/241 217/286/269
f 214/295/278 218/296/279 206/297/280 219/298/281
f 226/299/282 225/300/283 221/292/275 222/249/242
f 227/301/284 228/302/285 224/293/276 223/288/271
f 225/300/283 227/301/284 223/288/271 221/292/275
f 228/302/285 226/299/282 222/249/242 224/293/276
f 219/298/281 206/297/280 225/300/283 226/299/282
f 218/296/279 214/295/278 228/302/285 227/301/284
f 206/297/280 218/296/279 227/301/284 225/300/283
f 214/295/278 219/298/281 226/299/282 228/302/285
f 316/28/28 229/55/55 98/303/286 315/304/287
f 256/54/54 255/196/196 98/303/286 229/55/55
f 10/14/14 108/11/11 231/32/32 232/194/194
f 108/11/11 9/10/10 230/33/33 231/32/32
f 9/10/10 8/9/9 31/36/36 230/33/33
f 310/15/15 10/14/14 232/194/194 317/305/288
f 241/306/289 234/307/290 71/154/154 233/153/153
f 234/307/290 243/308/291 235/155/155 71/154/154
f 243/308/291 236/309/292 73/156/156 235/155/155
f 237/310/293 241/306/289 233/153/153 74/152/152
f 246/311/294 239/312/295 39/148/148 238/157/157
f 239/312/295 248/313/296 240/149/149 39/148/148
f 236/309/292 246/311/294 238/157/157 73/156/156
f 248/313/296 237/310/293 74/152/152 240/149/149
f 17/68/68 242/65/65 234/314/290 241/315/289
f 242/65/65 19/64/64 243/316/291 234/314/290
f 19/64/64 244/67/67 236/317/292 243/316/291
f 245/69/69 17/68/68 241/315/289 237/318/293
f 60/117/117 247/116/116 239/319/295 246/320/294
f 247/116/116 62/118/118 248/321/296 239/319/295
f 244/67/67 60/117/117 246/320/294 236/317/292
f 62/118/118 245/69/69 237/318/293 248/321/296
f 104/239/232 159/243/236 164/79/79 307/228/221
f 258/322/297 259/323/298 101/114/114 253/324/299
f 250/170/170 148/169/169 249/325/300 96/326/301
f 249/325/300 148/169/169 147/174/174 128/177/177
f 352/122/122 67/121/121 251/176/176 151/175/175
f 79/135/135 84/158/158 75/160/160 64/134/134
f 344/327/302 253/324/299 101/114/114 345/128/128
f 324/328/303 35/88/88 103/50/50 321/191/191
f 92/185/185 114/201/201 259/323/298 258/322/297
f 257/329/304 116/184/184 92/185/185 258/322/297
f 254/202/202 100/47/47 101/114/114 259/323/298
f 119/330/305 257/329/304 258/322/297 253/324/299
f 347/218/216 119/330/305 253/324/299 344/327/302
f 260/331/306 254/202/202 259/323/298 114/201/201
f 252/197/197 254/202/202 260/331/306 261/332/307
f 98/303/286 255/196/196 252/197/197 261/332/307
f 267/100/100 12/29/29 262/187/187 265/192/192
f 320/333/308 260/331/306 114/201/201 11/89/89
f 307/228/221 262/187/187 264/189/189 102/334/309
f 261/332/307 318/335/310 315/304/287 98/303/286
f 261/332/307 260/331/306 320/333/308 318/335/310
f 266/336/311 263/337/312 264/189/189 97/188/188
f 318/335/310 266/336/311 97/188/188 315/304/287
f 268/101/101 267/100/100 265/192/192 55/193/193
f 271/84/84 272/82/82 273/81/81 2/234/227
f 271/84/84 270/87/87 269/338/313 272/82/82
f 157/83/83 272/82/82 269/338/313 53/111/111
f 4/236/229 2/234/227 273/81/81 154/80/80
f 319/31/31 177/30/30 13/229/222 317/305/288
f 126/161/161 138/164/164 135/205/205 122/221/219
f 122/221/219 135/205/205 282/106/106 281/143/143
f 122/221/219 281/143/143 280/127/127 75/160/160
f 75/160/160 280/127/127 277/113/113 64/134/134
f 66/129/129 70/136/136 274/103/103 279/115/115
f 72/130/130 64/134/134 277/113/113 276/105/105
f 135/205/205 41/204/204 278/107/107 282/106/106
f 18/131/131 72/130/130 276/105/105 275/104/104
f 70/136/136 18/131/131 275/104/104 274/103/103
f 68/71/71 40/125/125 279/115/115
f 115/49/49 117/48/48 288/339/314 286/340/315
f 250/170/170 96/326/301 285/341/316 293/342/317
f 309/90/90 118/91/91 289/343/318 292/344/319
f 116/184/184 257/329/304 294/345/320 287/346/321
f 119/330/305 347/218/216 284/347/322 290/348/323
f 257/329/304 119/330/305 290/348/323 294/345/320
f 347/218/216 130/171/171 291/349/324 284/347/322
f 117/48/48 116/184/184 287/346/321 288/339/314
f 130/171/171 250/170/170 293/342/317 291/349/324
f 328/190/190 115/49/49 286/340/315 322/350/325
f 334/178/178 309/90/90 292/344/319 338/351/326
f 294/345/320 290/348/323 302/352/327 306/353/328
f 288/339/314 287/346/321 299/354/329 300/355/330
f 291/349/324 293/342/317 305/356/331 303/357/332
f 322/350/325 286/340/315 298/358/333 323/359/334
f 286/340/315 288/339/314 300/355/330 298/358/333
f 287/346/321 294/345/320 306/353/328 299/354/329
f 293/342/317 285/341/316 297/360/335 305/356/331
f 284/347/322 291/349/324 303/357/332 296/361/336
f 292/344/319 289/343/318 301/362/337 304/363/338
f 290/348/323 284/347/322 296/361/336 302/352/327
f 338/351/326 292/344/319 304/363/338 339/364/339
f 327/365/340 324/328/303 105/61/61 308/60/60
f 342/366/341 325/367/342 161/182/182 341/215/213
f 29/195/195 319/31/31 317/305/288 232/194/194
f 35/88/88 102/334/309 264/189/189 263/337/312
f 2/234/227 310/15/15 317/305/288 13/229/222
f 12/29/29 316/28/28 315/304/287 97/188/188
f 5/235/228 314/72/72 313/12/12 4/236/229
f 229/55/55 316/28/28 319/31/31 29/195/195
f 4/236/229 313/12/12 310/15/15 2/234/227
f 318/335/310 320/333/308 263/337/312 266/336/311
f 11/89/89 35/88/88 263/337/312 320/333/308
f 329/368/343 325/367/342 162/240/233 307/228/221
f 327/365/340 329/368/343 307/228/221 102/334/309
f 308/60/60 107/183/183 329/368/343 327/365/340
f 107/183/183 161/182/182 325/367/342 329/368/343
f 340/241/234 162/240/233 325/367/342 342/366/341
f 102/334/309 35/88/88 324/328/303 327/365/340
f 289/343/318 322/350/325 323/359/334 301/362/337
f 118/91/91 328/190/190 322/350/325 289/343/318
f 105/61/61 324/328/303 321/191/191 311/74/74
f 115/49/49 328/190/190 321/191/191 103/50/50
f 312/369/344 340/241/234 342/366/341 326/370/345
f 326/370/345 342/366/341 341/215/213 163/371/346
f 283/372/347 338/351/326 339/364/339 295/373/348
f 20/179/179 334/178/178 338/351/326 283/372/347
f 160/242/235 337/233/226 335/245/238 166/76/76
f 44/231/224 336/230/223 340/241/234 312/369/344
f 132/238/231 336/230/223 337/233/226 160/242/235
f 99/374/349 330/216/214 332/220/218 45/375/350
f 45/375/350 332/220/218 331/181/181 94/180/180
f 163/371/346 341/215/213 330/216/214 99/374/349
f 309/90/90 334/178/178 331/181/181 129/75/75
f 333/376/351 343/377/352 335/245/238 165/244/237
f 166/76/76 335/245/238 343/377/352 134/77/77
f 134/77/77 343/377/352 333/376/351 57/378/353
f 305/356/331 297/360/335 295/373/348 339/364/339
f 303/357/332 305/356/331 339/364/339 304/363/338
f 296/361/336 303/357/332 304/363/338 301/362/337
f 302/352/327 296/361/336 301/362/337 323/359/334
f 306/353/328 302/352/327 323/359/334 298/358/333
f 299/354/329 306/353/328 298/358/333 300/355/330
f 38/222/220 143/147/147 344/327/302 345/128/128
f 123/210/210 38/222/220 345/128/128 346/144/144
f 95/146/146 153/173/173 348/217/215 347/218/216
f 153/173/173 152/56/56 349/208/208 348/217/215
f 136/211/211 123/210/210 346/144/144 350/109/109
f 152/56/56 150/59/59 351/209/209 349/208/208
f 150/59/59 137/58/58 352/122/122 351/209/209
f 137/58/58 146/172/172 353/119/119 352/122/122
f 143/147/147 95/146/146 347/218/216 344/327/302
f 146/172/172 136/211/211 350/109/109 353/119/119
f 109/379/1 436/380/354 373/381/355 24/382/2
f 24/382/2 373/381/355 374/383/356 25/384/5
f 374/383/356 359/385/357 356/386/358 358/387/359
f 373/381/355 360/388/360 359/385/357 374/383/356
f 436/380/354 435/389/361 360/388/360 373/381/355
f 624/390/362 622/391/363 361/392/364 372/393/365
f 25/384/5 374/383/356 358/387/359 6/394/16
f 509/395/366 506/396/367 379/397/368
f 508/398/369 515/399/370 380/400/371 499/401/372
f 388/402/373 389/403/374 51/404/26 49/405/25
f 626/406/375 629/407/376 497/408/377 363/409/378
f 550/410/379 437/411/380 376/412/381 549/413/382
f 549/413/382 376/412/381 377/414/383
f 359/385/357 377/414/383 365/415/384 356/386/358
f 499/401/372 380/400/371 366/416/385 498/417/386
f 515/399/370 382/418/387 383/419/388 380/400/371
f 383/419/388 393/420/389 354/421/390 367/422/391
f 382/418/387 394/423/392 393/420/389 383/419/388
f 439/424/393 427/425/394 394/423/392 382/418/387
f 443/426/395 423/427/396 430/428/397 441/429/398
f 507/430/399 548/431/400 573/432/401 514/433/402
f 476/434/403 474/435/404 462/436/405 446/437/406
f 620/438/407 466/439/408 458/440/409 432/441/410
f 370/442/411 563/443/412 398/444/413 561/445/414
f 561/445/414 398/444/413 564/446/415 368/447/416
f 393/420/389 400/448/417 371/449/418 354/421/390
f 314/450/72 624/390/362 372/393/365 23/451/73
f 458/440/409 454/452/419 623/453/420 432/441/410
f 486/454/421 485/455/422 433/456/423 459/457/424
f 478/458/425 480/459/426 589/460/427 590/461/428
f 588/462/429 587/463/430 392/464/431 479/465/432
f 381/466/433 430/428/397 423/427/396 362/467/434
f 621/468/435 444/469/436 623/453/420 454/452/419
f 400/448/417 69/93/93 22/92/92 371/449/418
f 501/470/437 388/402/373 49/405/25 182/471/95
f 356/386/358 365/415/384 387/472/438 358/387/359
f 517/473/439 439/424/393 382/418/387 515/399/370
f 358/387/359 387/472/438 47/474/98 6/394/16
f 367/422/391 354/421/390 371/449/418 389/403/374
f 380/400/371 383/419/388 367/422/391 366/416/385
f 498/417/386 366/416/385 388/402/373 501/470/437
f 389/403/374 371/449/418 22/92/92 51/404/26
f 504/475/440 502/476/441 585/477/442 584/478/443
f 591/479/444 393/420/389 394/423/392 592/480/445
f 592/480/445 394/423/392 427/425/394 593/481/446
f 598/482/447 658/483/448 61/108/108 278/107/107
f 158/484/110 54/485/112 390/486/449 480/459/426
f 593/481/446 427/425/394 428/487/450 594/488/451
f 595/489/452 400/448/417 393/420/389 591/479/444
f 566/490/453 398/444/413 563/443/412 395/491/454
f 396/492/455 564/446/415 398/444/413 566/490/453
f 661/493/456 660/494/457 67/121/121 144/120/120
f 43/123/123 63/126/126 386/495/458 409/496/459
f 596/497/460 594/488/451 428/487/450 653/498/461
f 386/495/458 595/489/452 399/499/462 409/496/459
f 403/500/463 413/501/464 411/502/465 369/503/466
f 397/504/467 410/505/468 413/501/464 403/500/463
f 369/503/466 411/502/465 412/506/469 401/507/470
f 467/508/471 464/509/472 420/510/473 447/511/474
f 63/126/126 69/93/93 400/448/417 386/495/458
f 401/507/470 412/506/469 407/512/475 399/499/462
f 597/513/476 596/497/460 653/498/461 654/514/477
f 469/515/478 468/516/479 424/517/480 446/437/406
f 385/518/481 414/519/482 416/520/483 559/521/484
f 405/522/485 407/512/475 412/506/469 552/523/486
f 402/524/487 411/502/465 413/501/464 554/525/488
f 404/526/489 410/505/468 415/527/490 557/528/491
f 557/528/491 415/527/490 414/519/482 385/518/481
f 554/525/488 413/501/464 410/505/468 404/526/489
f 552/523/486 412/506/469 411/502/465 402/524/487
f 559/521/484 416/520/483 407/512/475 405/522/485
f 415/527/490 406/529/492 417/530/493
f 452/531/494 463/532/495 456/533/496 451/534/497
f 418/535/498 414/519/482 415/527/490 417/530/493
f 419/536/499 416/520/483 414/519/482 418/535/498
f 419/536/499 399/499/462 407/512/475 416/520/483
f 409/496/459 399/499/462 419/536/499 450/537/500
f 597/513/476 654/514/477 658/483/448 598/482/447
f 452/531/494 451/534/497 418/535/498 417/530/493
f 473/538/501 455/539/502 568/540/503 472/541/504
f 470/542/505 469/515/478 446/437/406 462/436/405
f 476/434/403 446/437/406 424/517/480 477/543/506
f 471/544/507 128/177/177 251/176/176 475/545/508
f 642/546/509 640/547/510 94/180/180 20/179/179
f 483/548/511 466/439/408 620/438/407 434/549/512
f 442/550/513 422/551/514 423/427/396 443/426/395
f 409/496/459 456/533/496 42/186/186 43/123/123
f 579/552/515 581/553/516 425/554/517 363/409/378
f 637/555/518 631/556/519 623/453/420 444/469/436
f 582/557/520 391/558/521 433/456/423 485/455/422
f 551/559/522 375/560/523 437/411/380 550/410/379
f 572/561/524 569/562/525 439/424/393 517/473/439
f 506/396/367 516/563/526 487/564/527 503/565/528
f 372/393/365 361/392/364 435/389/361 436/380/354
f 514/433/402 573/432/401 572/561/524 517/473/439
f 440/566/529 362/467/434 423/427/396 422/551/514
f 571/567/530 427/425/394 439/424/393 569/562/525
f 418/535/498 451/534/497 450/537/500 419/536/499
f 463/532/495 460/568/531 41/204/204 89/203/203
f 465/569/532 659/570/533 657/571/534 453/572/535
f 470/542/505 461/573/536 449/574/537 469/515/478
f 465/575/532 467/508/471 447/511/474 421/576/538
f 453/577/535 467/508/471 465/575/532
f 649/578/539 639/579/540 466/439/408 483/548/511
f 475/545/508 660/494/457 659/570/533
f 656/580/541 655/581/542 455/539/502 473/538/501
f 453/577/535 408/582/543 464/509/472 467/508/471
f 641/583/544 640/547/510 454/452/419 458/440/409
f 639/579/540 641/583/544 458/440/409 466/439/408
f 42/186/186 456/533/496 463/532/495 89/203/203
f 417/530/493 406/529/492 448/584/545 452/531/494
f 449/574/537 384/585/546 468/516/479 469/515/478
f 658/483/448 661/493/456 144/120/120 61/108/108
f 420/586/473 472/541/504 471/544/507 447/587/474
f 464/588/472 473/538/501 472/541/504 420/586/473
f 421/589/538 475/545/508 659/570/533 465/569/532
f 450/537/500 451/534/497 456/533/496 409/496/459
f 447/587/474 471/544/507 475/545/508 421/589/538
f 453/572/535 657/571/534 656/580/541 408/590/543
f 408/590/543 656/580/541 473/538/501 464/588/472
f 23/451/73 372/393/365 436/380/354 109/379/1
f 366/416/385 367/422/391 389/403/374 388/402/373
f 497/408/377 504/475/440 584/478/443 363/409/378
f 579/552/515 582/557/520 485/455/422 619/591/547
f 497/408/377 364/592/548 479/465/432 504/475/440
f 644/593/549 645/594/550 156/232/225 44/231/224
f 355/595/551 588/462/429 479/465/432 364/592/548
f 5/596/228 52/597/230 478/458/425 357/598/552
f 457/599/553 484/600/554 619/591/547 431/601/555
f 644/593/549 648/602/556 484/600/554 457/599/553
f 457/599/553 431/601/555 481/603/557 482/604/558
f 645/594/550 643/605/559 165/244/237 156/232/225
f 481/603/557 485/455/422 486/454/421 482/604/558
f 496/606/560 541/607/561 539/608/562 527/609/563
f 529/610/564 490/611/565 541/607/561 496/606/560
f 503/565/528 487/564/527 510/612/566 505/613/567
f 437/614/380 492/615/568 378/616/569 376/617/381
f 495/618/570 508/619/369 376/617/381 378/616/569
f 500/620/571 505/613/567 510/612/566 511/621/572
f 508/619/369 500/620/571 511/621/572 515/622/370
f 489/623/573 529/610/564 496/606/560 528/624/574
f 528/624/574 496/606/560 527/609/563 488/625/575
f 507/626/399 509/395/366 379/397/368 375/627/523
f 514/628/402 513/629/576 509/395/366 507/626/399
f 500/620/571 508/619/369 495/618/570
f 378/616/569 505/613/567 500/620/571 495/618/570
f 492/615/568 503/565/528 505/613/567 378/616/569
f 52/597/230 158/484/110 480/459/426 478/458/425
f 379/397/368 506/396/367 503/565/528 492/615/568
f 479/465/432 392/464/431 502/476/441 504/475/440
f 365/415/384 498/417/386 501/470/437 387/472/438
f 387/472/438 501/470/437 182/471/95 47/474/98
f 507/430/399 375/560/523 548/431/400
f 377/414/383 499/401/372 498/417/386 365/415/384
f 376/412/381 508/398/369 499/401/372 377/414/383
f 513/629/576 516/563/526 506/396/367 509/395/366
f 375/627/523 379/397/368 492/615/568 437/614/380
f 494/630/577 511/621/572 510/612/566 518/631/578
f 518/631/578 510/612/566 487/564/527 512/632/579
f 493/633/580 513/629/576 514/628/402 522/634/581
f 535/635/582 515/622/370 511/621/572 494/630/577
f 524/636/583 516/563/526 513/629/576 493/633/580
f 512/632/579 487/564/527 516/563/526 524/636/583
f 534/637/584 517/638/439 515/622/370 535/635/582
f 522/634/581 514/628/402 517/639/439 534/640/584
f 519/641/585 494/630/577 518/631/578 526/642/586
f 526/642/586 518/631/578 512/632/579 520/643/587
f 521/644/588 493/633/580 522/634/581 530/645/589
f 536/646/590 535/635/582 494/630/577 519/641/585
f 532/647/591 524/636/583 493/633/580 521/644/588
f 520/643/587 512/632/579 524/636/583 532/647/591
f 542/648/592 438/649/593 523/650/594 531/651/595
f 530/645/589 522/634/581 534/640/584 540/652/596
f 527/609/563 519/641/585 526/642/586 488/625/575
f 488/625/575 526/642/586 520/643/587 528/624/574
f 529/610/564 521/644/588 530/645/589 490/611/565
f 539/608/562 536/646/590 519/641/585 527/609/563
f 489/623/573 532/647/591 521/644/588 529/610/564
f 528/624/574 520/643/587 532/647/591 489/623/573
f 543/653/597 542/648/592 531/651/595 491/654/598
f 490/611/565 530/645/589 540/652/596 541/607/561
f 438/649/593 534/637/584 535/635/582 523/650/594
f 523/650/594 535/635/582 536/646/590 531/651/595
f 542/648/592 540/652/596 534/637/584 438/649/593
f 491/654/598 539/608/562 541/607/561 543/653/597
f 531/651/595 536/646/590 539/608/562 491/654/598
f 533/655/599 538/656/600 525/657/601 537/658/602
f 545/659/603 541/607/561 540/652/596 544/660/604
f 546/661/605 542/648/592 543/653/597 547/662/606
f 544/660/604 540/652/596 542/648/592 546/661/605
f 547/662/606 543/653/597 541/607/561 545/659/603
f 538/656/600 545/659/603 544/660/604 525/657/601
f 537/658/602 546/661/605 547/662/606 533/655/599
f 525/657/601 544/660/604 546/661/605 537/658/602
f 533/655/599 547/662/606 545/659/603 538/656/600
f 626/406/375 625/663/607 426/664/608 548/431/400
f 573/432/401 548/431/400 426/664/608 572/561/524
f 361/392/364 551/559/522 550/410/379 435/389/361
f 435/389/361 550/410/379 549/413/382 360/388/360
f 360/388/360 549/413/382 377/414/383 359/385/357
f 622/391/363 627/665/609 551/559/522 361/392/364
f 560/666/610 552/523/486 402/524/487 553/667/611
f 553/667/611 402/524/487 554/525/488 562/668/612
f 562/668/612 554/525/488 404/526/489 555/669/613
f 556/670/614 405/522/485 552/523/486 560/666/610
f 565/671/615 557/528/491 385/518/481 558/672/616
f 558/672/616 385/518/481 559/521/484 567/673/617
f 555/669/613 404/526/489 557/528/491 565/671/615
f 567/673/617 559/521/484 405/522/485 556/670/614
f 368/447/416 560/674/610 553/675/611 561/445/414
f 561/445/414 553/675/611 562/676/612 370/442/411
f 370/442/411 562/676/612 555/677/613 563/443/412
f 564/446/415 556/678/614 560/674/610 368/447/416
f 395/491/454 565/679/615 558/680/616 566/490/453
f 566/490/453 558/680/616 567/681/617 396/492/455
f 563/443/412 555/677/613 565/679/615 395/491/454
f 396/492/455 567/681/617 556/678/614 564/446/415
f 431/601/555 619/591/547 485/455/422 481/603/557
f 575/682/618 570/683/619 428/487/450 576/684/620
f 568/540/503 96/326/301 249/325/300 472/541/504
f 249/325/300 128/177/177 471/544/507 472/541/504
f 660/494/457 475/545/508 251/176/176 67/121/121
f 410/505/468 397/504/467 406/529/492 415/527/490
f 652/685/621 653/498/461 428/487/450 570/683/619
f 634/686/622 631/556/519 430/428/397 381/466/433
f 422/551/514 575/682/618 576/684/620 440/566/529
f 574/687/623 575/682/618 422/551/514 442/550/513
f 571/567/530 576/684/620 428/487/450 427/425/394
f 445/688/624 570/683/619 575/682/618 574/687/623
f 655/581/542 652/685/621 570/683/619 445/688/624
f 577/689/625 440/566/529 576/684/620 571/567/530
f 569/562/525 578/690/626 577/689/625 571/567/530
f 426/664/608 578/690/626 569/562/525 572/561/524
f 584/478/443 582/557/520 579/552/515 363/409/378
f 630/691/627 362/467/434 440/566/529 577/689/625
f 619/591/547 429/692/628 581/553/516 579/552/515
f 578/690/626 426/664/608 625/663/607 628/693/629
f 578/690/626 628/693/629 630/691/627 577/689/625
f 583/694/630 425/554/517 581/553/516 580/695/631
f 628/693/629 625/663/607 425/554/517 583/694/630
f 585/477/442 391/558/521 582/557/520 584/478/443
f 588/462/429 355/595/551 590/461/428 589/460/427
f 588/462/429 589/460/427 586/696/632 587/463/430
f 480/459/426 390/486/449 586/696/632 589/460/427
f 357/598/552 478/458/425 590/461/428 355/595/551
f 629/407/376 627/665/609 364/592/548 497/408/377
f 452/531/494 448/584/545 460/568/531 463/532/495
f 448/584/545 597/513/476 598/482/447 460/568/531
f 448/584/545 406/529/492 596/497/460 597/513/476
f 406/529/492 397/504/467 594/488/451 596/497/460
f 399/499/462 595/489/452 591/479/444 401/507/470
f 403/500/463 593/481/446 594/488/451 397/504/467
f 460/568/531 598/482/447 278/107/107 41/204/204
f 369/503/466 592/480/445 593/481/446 403/500/463
f 401/507/470 591/479/444 592/480/445 369/503/466
f 400/448/417 595/489/452 386/495/458
f 441/429/398 600/697/633 602/698/634 443/426/395
f 568/540/503 607/699/635 285/341/316 96/326/301
f 621/468/435 606/700/636 603/701/637 444/469/436
f 442/550/513 601/702/638 608/703/639 574/687/623
f 445/688/624 604/704/640 599/705/641 655/581/542
f 574/687/623 608/703/639 604/704/640 445/688/624
f 655/581/542 599/705/641 605/706/642 455/539/502
f 443/426/395 602/698/634 601/702/638 442/550/513
f 455/539/502 605/706/642 607/699/635 568/540/503
f 637/555/518 632/707/643 600/697/633 441/429/398
f 642/546/509 646/708/644 606/700/636 621/468/435
f 608/703/639 618/709/645 614/710/646 604/704/640
f 602/698/634 612/711/647 611/712/648 601/702/638
f 605/706/642 615/713/649 617/714/650 607/699/635
f 632/707/643 633/715/651 610/716/652 600/697/633
f 600/697/633 610/716/652 612/711/647 602/698/634
f 601/702/638 611/712/648 618/709/645 608/703/639
f 607/699/635 617/714/650 297/360/335 285/341/316
f 599/705/641 609/717/653 615/713/649 605/706/642
f 606/700/636 616/718/654 613/719/655 603/701/637
f 604/704/640 614/710/646 609/717/653 599/705/641
f 646/708/644 647/720/656 616/718/654 606/700/636
f 636/721/657 620/438/407 432/441/410 634/686/622
f 650/722/658 649/578/539 483/548/511 635/723/659
f 375/560/523 551/559/522 627/665/609 629/407/376
f 381/466/433 580/695/631 581/553/516 429/692/628
f 355/595/551 364/592/548 627/665/609 622/391/363
f 363/409/378 425/554/517 625/663/607 626/406/375
f 5/596/228 357/598/552 624/390/362 314/450/72
f 548/431/400 375/560/523 629/407/376 626/406/375
f 357/598/552 355/595/551 622/391/363 624/390/362
f 628/693/629 583/694/630 580/695/631 630/691/627
f 362/467/434 630/691/627 580/695/631 381/466/433
f 638/724/660 619/591/547 484/600/554 635/723/659
f 636/721/657 429/692/628 619/591/547 638/724/660
f 620/438/407 636/721/657 638/724/660 434/549/512
f 434/549/512 638/724/660 635/723/659 483/548/511
f 648/602/556 650/722/658 635/723/659 484/600/554
f 429/692/628 636/721/657 634/686/622 381/466/433
f 603/701/637 613/719/655 633/715/651 632/707/643
f 444/469/436 603/701/637 632/707/643 637/555/518
f 432/441/410 623/453/420 631/556/519 634/686/622
f 441/429/398 430/428/397 631/556/519 637/555/518
f 312/369/344 326/370/345 650/722/658 648/602/556
f 326/370/345 163/371/346 649/578/539 650/722/658
f 283/372/347 295/373/348 647/720/656 646/708/644
f 20/179/179 283/372/347 646/708/644 642/546/509
f 482/604/558 486/454/421 643/605/559 645/594/550
f 44/231/224 312/369/344 648/602/556 644/593/549
f 457/599/553 482/604/558 645/594/550 644/593/549
f 99/374/349 45/375/350 641/583/544 639/579/540
f 45/375/350 94/180/180 640/547/510 641/583/544
f 163/371/346 99/374/349 639/579/540 649/578/539
f 621/468/435 454/452/419 640/547/510 642/546/509
f 333/376/351 165/244/237 643/605/559 651/725/661
f 486/454/421 459/457/424 651/725/661 643/605/559
f 459/457/424 57/378/353 333/376/351 651/725/661
f 617/714/650 647/720/656 295/373/348 297/360/335
f 615/713/649 616/718/654 647/720/656 617/714/650
f 609/717/653 613/719/655 616/718/654 615/713/649
f 614/710/646 633/715/651 613/719/655 609/717/653
f 618/709/645 610/716/652 633/715/651 614/710/646
f 611/712/648 612/711/647 610/716/652 618/709/645
f 384/585/546 653/498/461 652/685/621 468/516/479
f 449/574/537 654/514/477 653/498/461 384/585/546
f 424/517/480 655/581/542 656/580/541 477/543/506
f 477/543/506 656/580/541 657/571/534 476/434/403
f 461/573/536 658/483/448 654/514/477 449/574/537
f 476/434/403 657/571/534 659/570/533 474/435/404
f 474/435/404 659/570/533 660/494/457 462/436/405
f 462/436/405 660/494/457 661/493/456 470/542/505
f 468/516/479 652/685/621 655/581/542 424/517/480
f 470/542/505 661/493/456 658/483/448 461/573/536
